<?xml version="1.0" encoding="UTF-8" standalone="no"?>
<!-- Created with Inkscape (http://www.inkscape.org/) -->

<svg
   width="128mm"
   height="128mm"
   viewBox="0 0 128 128"
   version="1.1"
   id="svg1"
   xmlns="http://www.w3.org/2000/svg"
   xmlns:svg="http://www.w3.org/2000/svg">
  <defs
     id="defs1" />
  <g
     id="layer1"
     transform="translate(154.68666,-96.065966)">
    <circle
       style="fill:#ffffff;fill-opacity:1;stroke:none;stroke-width:2;stroke-linecap:round;paint-order:markers stroke fill"
       id="path106"
       cx="-90.686668"
       cy="160.06596"
       r="64" />
    <g
       id="g144"
       transform="matrix(1.4226511,0,0,1.4226511,-172.04636,-130.6815)"
       style="stroke-width:0.702913">
      <path
         id="path132"
         style="fill:#1a9659;fill-opacity:1;stroke-width:1.40582;stroke-linecap:round;paint-order:markers stroke fill"
         d="m 68.835508,160.91753 a 25,25 0 0 0 -6.470482,-0.85156 25,25 0 0 0 -17.677399,7.32211 25,25 0 0 0 -1.851279,2.06926 25,25 0 0 0 -3.851257,6.75596 25,25 0 0 0 -0.762385,2.36208 l -0.0083,0.0309 a 25,25 0 0 0 -0.520842,2.43697 25,25 0 0 0 -0.03944,7.75434 25,25 0 0 0 0.57486,2.74232 25,25 0 0 0 4.499153,8.96938 25,25 0 0 0 13.166399,8.70453 15,15 0 0 1 7.361883,4.56091 15,15 0 0 1 3.24481,6.04551 15,15 0 0 1 0.444411,5.29567 15,15 0 0 1 -0.444419,2.46923 15,15 0 0 1 -0.849232,2.36074 15,15 0 0 1 -3.032578,4.36349 15,15 0 0 1 -5.832476,3.61379 15,15 0 0 1 -8.657032,0.26866 5,5 0 0 0 -6.123484,3.53582 5,5 0 0 0 3.535319,6.12335 5,5 0 0 0 0.641537,0.12748 25,25 0 0 0 23.506846,-6.59792 25,25 0 0 0 1.851279,-2.06925 25,25 0 0 0 3.850755,-6.75609 25,25 0 0 0 0.768735,-2.38178 l 5.18e-4,-0.002 a 25,25 0 0 0 0.52275,-2.4461 25,25 0 0 0 0.03931,-7.75383 25,25 0 0 0 -0.57536,-2.74246 25,25 0 0 0 -4.498886,-8.97037 25,25 0 0 0 -13.166666,-8.70353 15,15 0 0 1 -7.362381,-4.56105 15,15 0 0 1 -3.244177,-6.04587 15,15 0 0 1 -0.444411,-5.29568 15,15 0 0 1 0.444419,-2.46923 15,15 0 0 1 0.849731,-2.3606 15,15 0 0 1 3.033077,-4.36336 15,15 0 0 1 5.832476,-3.6138 l 4.99e-4,1.4e-4 a 15,15 0 0 1 8.655266,-0.26806 l 1.35e-4,-5e-4 a 5,5 0 0 0 6.123983,-3.53568 5,5 0 0 0 -3.535819,-6.12348 z" />
      <path
         d="m 48.725748,178.82284 a 15,15 0 0 0 -0.84956,2.36058 15,15 0 0 0 -0.444417,2.4691 l 14.286461,3.82819 1.293981,-4.82968 z"
         style="fill:#4ade80;fill-opacity:1;stroke-width:1.40582;stroke-linecap:round;paint-order:markers stroke fill"
         id="path133" />
      <path
         d="m 57.591873,170.84555 h -5.15e-4 a 15,15 0 0 0 -5.832719,3.61372 l 12.547554,3.36208 1.294489,-4.82968 z"
         style="fill:#f59e0b;fill-opacity:1;stroke-width:1.40582;stroke-linecap:round;paint-order:markers stroke fill"
         id="path134" />
      <path
         d="m 47.87619,188.94831 a 15,15 0 0 0 3.244245,6.04563 l 8.009329,2.14613 1.2945,-4.82969 z"
         style="fill:#9f7aea;fill-opacity:1;stroke-width:1.40582;stroke-linecap:round;paint-order:markers stroke fill"
         id="path135" />
      <path
         d="m 65.651843,229.94582 a 15,15 0 0 0 0.849561,-2.36059 15,15 0 0 0 0.444419,-2.4691 l -14.286463,-3.82819 -1.293978,4.82968 z"
         style="fill:#f59e0b;fill-opacity:1;stroke-width:1.40582;stroke-linecap:round;paint-order:markers stroke fill"
         id="path136" />
      <path
         d="m 66.501405,219.82033 a 15,15 0 0 0 -3.244762,-6.04563 l -8.008811,-2.14612 -1.293979,4.82969 z"
         style="fill:#3b82f6;fill-opacity:1;stroke-width:1.40582;stroke-linecap:round;paint-order:markers stroke fill"
         id="path137" />
      <path
         d="m 56.786756,237.9231 a 15,15 0 0 0 5.832718,-3.61372 l -12.548071,-3.36207 -1.293979,4.82968 z"
         style="fill:#4ade80;fill-opacity:1;stroke-width:1.40582;stroke-linecap:round;paint-order:markers stroke fill"
         id="path138" />
      <path
         d="M 55.248101,211.62842 35.53929,206.348 a 2.5000155,2.5000155 45 0 0 -3.061856,1.76733 2.5000155,2.5000155 45 0 0 1.767841,3.062 2.5000155,2.5000155 45 0 0 0.0075,0.002 l 19.701189,5.27891 z"
         style="fill:#4ade80;fill-opacity:1;stroke-width:1.40582;stroke-linecap:round;paint-order:markers stroke fill"
         id="path139" />
      <path
         d="m 30.918562,215.46254 a 2.5000155,2.5000155 45 0 0 -3.054006,1.76998 2.5000155,2.5000155 45 0 0 1.767843,3.06199 l 21.732754,5.82327 1.294149,-4.82983 -21.724767,-5.82114 a 2.5000155,2.5000155 45 0 1 0.155283,0.0534 2.5000155,2.5000155 45 0 0 -0.163269,-0.0555 2.5000155,2.5000155 45 0 0 -0.008,-0.002 z"
         style="fill:#9f7aea;fill-opacity:1;stroke-width:1.40582;stroke-linecap:round;paint-order:markers stroke fill"
         id="path140" />
      <path
         d="m 30.362958,225.66633 a 2.5000155,2.5000155 45 0 0 -3.05106,1.72904 l -0.02073,0.0774 a 2.5000155,2.5000155 45 0 0 1.77764,3.02343 l 19.708676,5.28093 1.29415,-4.82984 z"
         style="fill:#3b82f6;fill-opacity:1;stroke-width:1.40582;stroke-linecap:round;paint-order:markers stroke fill"
         id="path141" />
      <path
         d="m 60.4243,192.31058 -1.294649,4.8297 19.673994,5.27059 0.06888,0.0185 a 2.5000155,2.5000155 45 0 0 3.027418,-1.77657 2.5000155,2.5000155 45 0 0 -1.733535,-3.05227 l -0.06888,-0.0185 z"
         style="fill:#f59e0b;fill-opacity:1;stroke-width:1.40582;stroke-linecap:round;paint-order:markers stroke fill"
         id="path142" />
      <path
         d="m 63.0121,182.65078 -1.29365,4.82997 21.733252,5.8234 a 2.5000155,2.5000155 45 0 0 3.061494,-1.76798 2.5000155,2.5000155 45 0 0 -1.767344,-3.06185 z"
         style="fill:#3b82f6;fill-opacity:1;stroke-width:1.40582;stroke-linecap:round;paint-order:markers stroke fill"
         id="path143" />
      <path
         d="m 65.600767,172.99174 -1.294649,4.8297 19.704183,5.27972 a 2.5000155,2.5000155 45 0 0 0.004,0.001 2.5000155,2.5000155 45 0 0 3.06199,-1.76783 2.5000155,2.5000155 45 0 0 -1.767841,-3.062 z"
         style="fill:#9f7aea;fill-opacity:1;stroke-width:1.40582;stroke-linecap:round;paint-order:markers stroke fill"
         id="path144" />
    </g>
  </g>
</svg>
