<?xml version="1.0" encoding="UTF-8" standalone="no"?>
<!-- Created with Inkscape (http://www.inkscape.org/) -->

<svg
   width="128mm"
   height="128mm"
   viewBox="0 0 128 128"
   version="1.1"
   id="svg1"
   xml:space="preserve"
   xmlns="http://www.w3.org/2000/svg"
   xmlns:svg="http://www.w3.org/2000/svg"><defs
     id="defs1" /><g
     id="layer1"
     transform="translate(-261.00001,140.00001)"><g
       id="g154"><circle
         style="fill:#ffffff;fill-opacity:1;stroke:none;stroke-width:2;stroke-linecap:round;paint-order:markers stroke fill"
         id="circle152"
         cx="325"
         cy="-76"
         r="64" /><g
         id="g153"
         transform="rotate(15,325,-72.800177)"><path
           d="m 321.79998,-66.400483 -26.11723,6.66e-4 a 3.2000458,3.2000458 0 0 0 -3.20017,3.199488 3.2000458,3.2000458 0 0 0 3.20017,3.200167 3.2000458,3.2000458 0 0 0 0.0102,0 h 26.10731 z"
           style="fill:#4ade80;fill-opacity:1;stroke-width:1.99999;stroke-linecap:round;paint-order:markers stroke fill"
           id="path111" /><path
           d="m 292.98926,-53.599841 a 3.2000458,3.2000458 0 0 0 -3.18958,3.200167 3.2000458,3.2000458 0 0 0 3.20017,3.200154 h 28.79946 v -6.400321 h -28.78888 a 3.2000458,3.2000458 0 0 1 0.20968,0.01459 3.2000458,3.2000458 0 0 0 -0.22026,-0.01459 3.2000458,3.2000458 0 0 0 -0.0102,0 z"
           style="fill:#9f7aea;fill-opacity:1;stroke-width:1.99999;stroke-linecap:round;paint-order:markers stroke fill"
           id="path112" /><path
           d="m 295.68275,-40.799852 a 3.2000458,3.2000458 0 0 0 -3.1995,3.148569 v 0.102529 a 3.2000458,3.2000458 0 0 0 3.1995,3.149235 h 26.11723 v -6.400321 z"
           style="fill:#3b82f6;fill-opacity:1;stroke-width:1.99999;stroke-linecap:round;paint-order:markers stroke fill"
           id="path113" /><path
           d="m 321.79998,-91.999795 -6.7e-4,6.400321 26.07094,-0.0013 h 0.0913 a 3.2000458,3.2000458 0 0 0 3.15452,-3.199501 3.2000458,3.2000458 0 0 0 -3.15452,-3.199501 h -0.0913 z"
           style="fill:#f59e0b;fill-opacity:1;stroke-width:1.99999;stroke-linecap:round;paint-order:markers stroke fill"
           id="path114" /><path
           d="m 321.79931,-104.80044 6.7e-4,6.400324 h 28.80013 a 3.2000458,3.2000458 0 0 0 3.1995,-3.200164 3.2000458,3.2000458 0 0 0 -3.1995,-3.20016 z"
           style="fill:#3b82f6;fill-opacity:1;stroke-width:1.99999;stroke-linecap:round;paint-order:markers stroke fill"
           id="path115" /><path
           d="m 321.79998,-117.60043 -6.7e-4,6.40033 h 26.11128 a 3.2000458,3.2000458 0 0 0 0.005,0 3.2000458,3.2000458 0 0 0 3.20017,-3.20016 3.2000458,3.2000458 0 0 0 -3.20017,-3.20017 z"
           style="fill:#9f7aea;fill-opacity:1;stroke-width:1.99999;stroke-linecap:round;paint-order:markers stroke fill"
           id="path116" /><path
           d="m 321.79931,-104.80044 -22.39967,6.7e-4 c -1.76716,-7e-5 -3.19985,1.43232 -3.20016,3.19949 -7e-5,1.767428 1.43274,3.200231 3.20016,3.200164 0.004,6e-6 0.006,6e-6 0.0102,0 h 22.3901 z"
           style="fill:#4ade80;fill-opacity:1;stroke-width:1.99999;stroke-linecap:round;paint-order:markers stroke fill"
           id="path117" /><path
           d="m 321.79931,-117.60043 -22.39967,6.7e-4 c -1.76716,-7e-5 -3.19985,1.43232 -3.20016,3.19949 -7e-5,1.76743 1.43274,3.20023 3.20016,3.20017 0.004,0 0.006,0 0.0102,0 h 22.3901 z"
           style="fill:#f59e0b;fill-opacity:1;stroke-width:1.99999;stroke-linecap:round;paint-order:markers stroke fill"
           id="path118" /><path
           d="m 321.79931,-91.999795 -22.39967,6.66e-4 c -1.76716,-6.7e-5 -3.19985,1.432322 -3.20016,3.199488 -7e-5,1.767431 1.43274,3.200234 3.20016,3.200167 0.004,5e-6 0.006,5e-6 0.0102,0 h 22.3901 z"
           style="fill:#9f7aea;fill-opacity:1;stroke-width:1.99999;stroke-linecap:round;paint-order:markers stroke fill"
           id="path145" /><path
           d="m 321.80097,-66.399166 22.39967,6.66e-4 c 1.76717,-6.7e-5 3.19986,1.432323 3.20016,3.199488 7e-5,1.767431 -1.43274,3.200234 -3.20016,3.200167 -0.004,5e-6 -0.006,5e-6 -0.0102,0 h -22.3901 z"
           style="fill:#3b82f6;fill-opacity:1;stroke-width:1.99999;stroke-linecap:round;paint-order:markers stroke fill"
           id="path146" /><path
           d="m 321.80097,-53.599845 22.39967,6.66e-4 c 1.76717,-6.7e-5 3.19986,1.432322 3.20016,3.199488 7e-5,1.767431 -1.43274,3.200233 -3.20016,3.200167 -0.004,5e-6 -0.006,5e-6 -0.0102,0 h -22.3901 z"
           style="fill:#f59e0b;fill-opacity:1;stroke-width:1.99999;stroke-linecap:round;paint-order:markers stroke fill"
           id="path147" /><path
           d="m 321.80097,-40.79984 22.39967,6.66e-4 c 1.76717,-7.7e-5 3.19986,1.432319 3.20016,3.199488 7e-5,1.767426 -1.43274,3.200231 -3.20016,3.200167 -0.004,0 -0.006,0 -0.0102,0 h -22.3901 z"
           style="fill:#4ade80;fill-opacity:1;stroke-width:1.99999;stroke-linecap:round;paint-order:markers stroke fill"
           id="path148" /><path
           id="path149"
           style="fill:#1a9659;fill-opacity:1;stroke-width:1.99999;stroke-linecap:round;paint-order:markers stroke fill"
           d="m 321.79931,-133.60057 a 32.00026,32.00026 0 0 0 -8.28217,1.09075 32.00026,32.00026 0 0 0 -19.43051,14.90939 32.00026,32.00026 0 0 0 -1.60338,3.17173 32.00026,32.00026 0 0 0 -2.52349,9.62893 32.00026,32.00026 0 0 0 -0.16008,3.17303 v 0.041 a 32.00026,32.00026 0 0 0 0.1634,3.185614 32.00026,32.00026 0 0 0 2.52017,9.600488 32.00026,32.00026 0 0 0 1.61926,3.200154 32.00026,32.00026 0 0 0 8.5342,9.599169 32.00026,32.00026 0 0 0 19.1626,6.400321 19.200156,19.200156 0 0 1 10.6132,3.200167 19.200156,19.200156 0 0 1 6.01468,6.399655 19.200156,19.200156 0 0 1 2.30388,6.400321 19.200156,19.200156 0 0 1 0.26855,3.200167 19.200156,19.200156 0 0 1 -0.26789,3.200154 19.200156,19.200156 0 0 1 -2.30388,6.399668 19.200156,19.200156 0 0 1 -6.01402,6.40032 19.200156,19.200156 0 0 1 -10.61452,3.200167 6.400052,6.400052 0 0 0 -6.39965,6.400321 6.400052,6.400052 0 0 0 6.39965,6.399642 6.400052,6.400052 0 0 0 0.83544,-0.05491 32.00026,32.00026 0 0 0 26.87792,-15.94523 32.00026,32.00026 0 0 0 1.60338,-3.171725 32.00026,32.00026 0 0 0 2.52282,-9.628917 32.00026,32.00026 0 0 0 0.1614,-3.199501 v -0.0027 a 32.00026,32.00026 0 0 0 -0.16404,-3.197517 32.00026,32.00026 0 0 0 -2.52018,-9.599822 32.00026,32.00026 0 0 0 -1.61992,-3.200154 32.00026,32.00026 0 0 0 -8.5342,-9.600488 32.00026,32.00026 0 0 0 -19.16262,-6.399002 19.200156,19.200156 0 0 1 -10.61384,-3.200167 19.200156,19.200156 0 0 1 -6.01403,-6.400321 19.200156,19.200156 0 0 1 -2.30388,-6.400321 19.200156,19.200156 0 0 1 -0.26856,-3.200163 19.200156,19.200156 0 0 1 0.26856,-3.20016 19.200156,19.200156 0 0 1 2.30455,-6.39967 19.200156,19.200156 0 0 1 6.01402,-6.40032 h 6.7e-4 a 19.200156,19.200156 0 0 1 10.61251,-3.19883 V -120.8 a 6.400052,6.400052 0 0 0 6.40033,-6.40032 6.400052,6.400052 0 0 0 -6.40033,-6.39965 z" /><rect
           style="fill:#1a9659;fill-opacity:1;stroke:none;stroke-width:1.99999;stroke-linecap:round;stroke-linejoin:round;stroke-opacity:1;paint-order:markers stroke fill"
           id="rect149"
           width="12.800104"
           height="12.800104"
           x="347.40021"
           y="-56.799946" /><rect
           style="fill:#1a9659;fill-opacity:1;stroke:none;stroke-width:1.99999;stroke-linecap:round;stroke-linejoin:round;stroke-opacity:1;paint-order:markers stroke fill"
           id="rect150"
           width="12.800104"
           height="12.800104"
           x="217.50902"
           y="-269.5856"
           transform="rotate(45)" /><path
           d="M 328.20064,-12.079883 V -24.800037 H 315.4009 v 12.076266 a 64,64 0 0 0 9.5989,0.723987 64,64 0 0 0 3.20084,-0.0801 z"
           style="fill:#1a9659;stroke-width:1.99999;stroke-linecap:round;stroke-linejoin:round;paint-order:markers stroke fill"
           id="path152" /><rect
           style="fill:#1a9659;fill-opacity:1;stroke:none;stroke-width:1.99999;stroke-linecap:round;stroke-linejoin:round;stroke-opacity:1;paint-order:markers stroke fill"
           id="rect152"
           width="12.800104"
           height="12.800104"
           x="288.78494"
           y="185.50919"
           transform="rotate(-45)" /></g></g></g></svg>
