<?xml version="1.0" encoding="UTF-8" standalone="no"?>
<!-- Created with Inkscape (http://www.inkscape.org/) -->

<svg
   width="153mm"
   height="49.167526mm"
   viewBox="0 0 153 49.167526"
   version="1.1"
   id="svg1"
   xml:space="preserve"
   xmlns="http://www.w3.org/2000/svg"
   xmlns:svg="http://www.w3.org/2000/svg"><defs
     id="defs1" /><g
     id="layer1"
     transform="translate(-49.917795,-156.14776)"><path
       style="fill:#000000;fill-opacity:1;stroke:#ff6600;stroke-width:0.499999;stroke-linecap:round;stroke-linejoin:round;stroke-dasharray:2, 0.999998, 0.499999, 0.999998;stroke-dashoffset:0;stroke-opacity:1;paint-order:markers stroke fill"
       d="M 52.667795,189.75085 H 200.1678"
       id="path2" /><rect
       style="fill:#00cc00;fill-opacity:1;stroke:#000000;stroke-width:0.5;stroke-linecap:round;stroke-linejoin:round;stroke-dasharray:none;stroke-opacity:1;paint-order:markers stroke fill"
       id="rect1"
       width="2.5"
       height="5"
       x="50.167797"
       y="187.25085" /><circle
       style="fill:#000000;fill-opacity:1;stroke-width:1;stroke-linecap:round;stroke-linejoin:round;paint-order:markers stroke fill"
       id="path1"
       cx="51.417797"
       cy="189.75085"
       r="0.25" /><rect
       style="fill:#00cc00;fill-opacity:1;stroke:#000000;stroke-width:0.5;stroke-linecap:round;stroke-linejoin:round;stroke-dasharray:none;stroke-opacity:1;paint-order:markers stroke fill"
       id="rect2"
       width="2.5"
       height="5"
       x="200.1678"
       y="187.25085" /><circle
       style="fill:#000000;fill-opacity:1;stroke-width:1;stroke-linecap:round;stroke-linejoin:round;paint-order:markers stroke fill"
       id="circle2"
       cx="201.4178"
       cy="189.75085"
       r="0.25" /><path
       id="rect3"
       style="fill:#cc0000;fill-opacity:1;stroke:#000000;stroke-width:0.5;stroke-linecap:round;stroke-linejoin:round;stroke-dasharray:none;stroke-opacity:1;paint-order:markers stroke fill"
       d="m 126.41761,159.75097 v 8.14989 a 1.25,1.25 0 0 1 1.25005,1.25006 1.25,1.25 0 0 1 -1.25005,1.25005 v 19.34972 h 2.5001 v -29.99972 z" /><g
       id="g5"
       transform="translate(6.9432209,5.1184545)"><path
         style="fill:#cc0000;fill-opacity:1;stroke:#000000;stroke-width:0.250001;stroke-linecap:round;stroke-linejoin:round;stroke-dasharray:none;stroke-dashoffset:0;stroke-opacity:1;paint-order:markers stroke fill"
         d="m 119.97458,183.6324 h 1.5"
         id="path3" /><path
         style="fill:#cc0000;fill-opacity:1;stroke:#000000;stroke-width:0.25;stroke-linecap:round;stroke-linejoin:round;stroke-dasharray:none;stroke-dashoffset:0;stroke-opacity:1;paint-order:markers stroke fill"
         d="m 119.97458,183.6324 0.35355,-0.35355"
         id="path4" /><path
         style="fill:#cc0000;fill-opacity:1;stroke:#000000;stroke-width:0.25;stroke-linecap:round;stroke-linejoin:round;stroke-dasharray:none;stroke-dashoffset:0;stroke-opacity:1;paint-order:markers stroke fill"
         d="m 119.97458,183.6324 0.35355,0.35355"
         id="path5" /></g><g
       id="g8"
       transform="translate(6.9432209,-22.881546)"><path
         style="fill:#cc0000;fill-opacity:1;stroke:#000000;stroke-width:0.250001;stroke-linecap:round;stroke-linejoin:round;stroke-dasharray:none;stroke-dashoffset:0;stroke-opacity:1;paint-order:markers stroke fill"
         d="m 119.97458,183.6324 h 1.5"
         id="path6" /><path
         style="fill:#cc0000;fill-opacity:1;stroke:#000000;stroke-width:0.25;stroke-linecap:round;stroke-linejoin:round;stroke-dasharray:none;stroke-dashoffset:0;stroke-opacity:1;paint-order:markers stroke fill"
         d="m 119.97458,183.6324 0.35355,-0.35355"
         id="path7" /><path
         style="fill:#cc0000;fill-opacity:1;stroke:#000000;stroke-width:0.25;stroke-linecap:round;stroke-linejoin:round;stroke-dasharray:none;stroke-dashoffset:0;stroke-opacity:1;paint-order:markers stroke fill"
         d="m 119.97458,183.6324 0.35355,0.35355"
         id="path8" /></g><g
       id="g11"
       transform="translate(6.9432209,-17.281546)"><path
         style="fill:#cc0000;fill-opacity:1;stroke:#000000;stroke-width:0.250001;stroke-linecap:round;stroke-linejoin:round;stroke-dasharray:none;stroke-dashoffset:0;stroke-opacity:1;paint-order:markers stroke fill"
         d="m 119.97458,183.6324 h 1.5"
         id="path9" /><path
         style="fill:#cc0000;fill-opacity:1;stroke:#000000;stroke-width:0.25;stroke-linecap:round;stroke-linejoin:round;stroke-dasharray:none;stroke-dashoffset:0;stroke-opacity:1;paint-order:markers stroke fill"
         d="m 119.97458,183.6324 0.35355,-0.35355"
         id="path10" /><path
         style="fill:#cc0000;fill-opacity:1;stroke:#000000;stroke-width:0.25;stroke-linecap:round;stroke-linejoin:round;stroke-dasharray:none;stroke-dashoffset:0;stroke-opacity:1;paint-order:markers stroke fill"
         d="m 119.97458,183.6324 0.35355,0.35355"
         id="path11" /></g><g
       id="g14"
       transform="translate(6.9432209,-11.681546)"><path
         style="fill:#cc0000;fill-opacity:1;stroke:#000000;stroke-width:0.250001;stroke-linecap:round;stroke-linejoin:round;stroke-dasharray:none;stroke-dashoffset:0;stroke-opacity:1;paint-order:markers stroke fill"
         d="m 119.97458,183.6324 h 1.5"
         id="path12" /><path
         style="fill:#cc0000;fill-opacity:1;stroke:#000000;stroke-width:0.25;stroke-linecap:round;stroke-linejoin:round;stroke-dasharray:none;stroke-dashoffset:0;stroke-opacity:1;paint-order:markers stroke fill"
         d="m 119.97458,183.6324 0.35355,-0.35355"
         id="path13" /><path
         style="fill:#cc0000;fill-opacity:1;stroke:#000000;stroke-width:0.25;stroke-linecap:round;stroke-linejoin:round;stroke-dasharray:none;stroke-dashoffset:0;stroke-opacity:1;paint-order:markers stroke fill"
         d="m 119.97458,183.6324 0.35355,0.35355"
         id="path14" /></g><g
       id="g20"
       transform="translate(6.9432209,-6.0815457)"><path
         style="fill:#cc0000;fill-opacity:1;stroke:#000000;stroke-width:0.250001;stroke-linecap:round;stroke-linejoin:round;stroke-dasharray:none;stroke-dashoffset:0;stroke-opacity:1;paint-order:markers stroke fill"
         d="m 119.97458,183.6324 h 1.5"
         id="path18" /><path
         style="fill:#cc0000;fill-opacity:1;stroke:#000000;stroke-width:0.25;stroke-linecap:round;stroke-linejoin:round;stroke-dasharray:none;stroke-dashoffset:0;stroke-opacity:1;paint-order:markers stroke fill"
         d="m 119.97458,183.6324 0.35355,-0.35355"
         id="path19" /><path
         style="fill:#cc0000;fill-opacity:1;stroke:#000000;stroke-width:0.25;stroke-linecap:round;stroke-linejoin:round;stroke-dasharray:none;stroke-dashoffset:0;stroke-opacity:1;paint-order:markers stroke fill"
         d="m 119.97458,183.6324 0.35355,0.35355"
         id="path20" /></g><g
       id="g23"
       transform="translate(6.9432209,-0.4815456)"><path
         style="fill:#cc0000;fill-opacity:1;stroke:#000000;stroke-width:0.250001;stroke-linecap:round;stroke-linejoin:round;stroke-dasharray:none;stroke-dashoffset:0;stroke-opacity:1;paint-order:markers stroke fill"
         d="m 119.97458,183.6324 h 1.5"
         id="path21" /><path
         style="fill:#cc0000;fill-opacity:1;stroke:#000000;stroke-width:0.25;stroke-linecap:round;stroke-linejoin:round;stroke-dasharray:none;stroke-dashoffset:0;stroke-opacity:1;paint-order:markers stroke fill"
         d="m 119.97458,183.6324 0.35355,-0.35355"
         id="path22" /><path
         style="fill:#cc0000;fill-opacity:1;stroke:#000000;stroke-width:0.25;stroke-linecap:round;stroke-linejoin:round;stroke-dasharray:none;stroke-dashoffset:0;stroke-opacity:1;paint-order:markers stroke fill"
         d="m 119.97458,183.6324 0.35355,0.35355"
         id="path23" /></g><path
       style="baseline-shift:baseline;display:inline;overflow:visible;opacity:1;fill:#cccccc;stroke:#000000;stroke-width:0.25;stroke-linecap:round;stroke-linejoin:round;stroke-dasharray:none;stroke-opacity:1;paint-order:markers stroke fill;enable-background:accumulate;stop-color:#000000;stop-opacity:1"
       d="m 126.4178,156.75085 c -0.82547,0 -1.5,0.67453 -1.5,1.5 0,0.82546 0.67453,1.5 1.5,1.5 0.82546,0 1.5,-0.67454 1.5,-1.5 0,-0.82547 -0.67454,-1.5 -1.5,-1.5 z m 0,0.5 c 0.55524,0 1,0.44475 1,1 0,0.55524 -0.44476,1 -1,1 -0.55525,0 -1,-0.44476 -1,-1 0,-0.55525 0.44475,-1 1,-1 z"
       id="path24" /><path
       style="baseline-shift:baseline;display:inline;overflow:visible;opacity:1;fill:#cccccc;stroke:#000000;stroke-width:0.25;stroke-linecap:round;stroke-linejoin:round;stroke-dasharray:none;stroke-opacity:1;paint-order:markers stroke fill;enable-background:accumulate;stop-color:#000000;stop-opacity:1"
       d="m 126.4178,167.65085 c -0.82547,0 -1.5,0.67453 -1.5,1.5 0,0.82546 0.67453,1.5 1.5,1.5 0.82546,0 1.5,-0.67454 1.5,-1.5 0,-0.82547 -0.67454,-1.5 -1.5,-1.5 z m 0,0.5 c 0.55524,0 1,0.44475 1,1 0,0.55524 -0.44476,1 -1,1 -0.55525,0 -1,-0.44476 -1,-1 0,-0.55525 0.44475,-1 1,-1 z"
       id="path25" /><g
       id="text26"
       style="font-weight:bold;font-size:2.11667px;line-height:1;font-family:Rubik;-inkscape-font-specification:'Rubik Bold';fill:#cccccc;fill-opacity:1;stroke:#000000;stroke-width:0.25;stroke-linecap:round;stroke-linejoin:round;paint-order:markers stroke fill"
       aria-label="BONUS  CAN&#10;(PLACED BY STUDENTS)"><path
         style="text-align:end;text-anchor:end;fill:#cccccc;fill-opacity:1;stroke:#000000"
         d="m 111.40672,168.67566 q -0.0233,0 -0.0402,-0.0169 -0.0169,-0.0169 -0.0169,-0.0402 v -1.36737 q 0,-0.0233 0.0169,-0.0402 0.0169,-0.0169 0.0402,-0.0169 h 0.68156 q 0.17992,0 0.29211,0.0635 0.11218,0.0635 0.16086,0.16298 0.0508,0.0974 0.0508,0.21379 0,0.10583 -0.0381,0.17145 -0.036,0.0635 -0.0804,0.0974 0.0804,0.055 0.1143,0.13124 0.0339,0.0741 0.0339,0.18203 0,0.19685 -0.11854,0.32809 -0.11853,0.13123 -0.37042,0.13123 z m 0.33443,-1.15359 v 0.2413 h 0.32808 q 0.0635,0 0.0952,-0.0318 0.0339,-0.0317 0.0339,-0.0889 0,-0.0572 -0.0339,-0.0889 -0.0318,-0.0317 -0.0952,-0.0317 z m 0.34925,0.82551 q 0.0635,0 0.1016,-0.036 0.0381,-0.036 0.0381,-0.0931 0,-0.0572 -0.0381,-0.0931 -0.0381,-0.036 -0.1016,-0.036 h -0.34925 v 0.25824 z m 1.37795,-1.17476 q 0.20109,0 0.34714,0.0762 0.14605,0.0762 0.22436,0.20744 0.0804,0.12911 0.0889,0.28998 0.004,0.0593 0.004,0.1905 0,0.12912 -0.004,0.18627 -0.008,0.16087 -0.0889,0.2921 -0.0783,0.12912 -0.22436,0.20532 -0.14605,0.0762 -0.34714,0.0762 -0.20108,0 -0.34713,-0.0762 -0.14605,-0.0762 -0.22648,-0.20532 -0.0783,-0.13123 -0.0868,-0.2921 -0.004,-0.1143 -0.004,-0.18627 0,-0.072 0.004,-0.1905 0.008,-0.16087 0.0868,-0.28998 0.0804,-0.13124 0.22648,-0.20744 0.14605,-0.0762 0.34713,-0.0762 z m 0.26882,0.5842 q -0.0106,-0.11218 -0.0783,-0.1778 -0.0656,-0.0677 -0.1905,-0.0677 -0.12488,0 -0.19261,0.0677 -0.0656,0.0656 -0.0762,0.1778 -0.006,0.0699 -0.006,0.17569 0,0.10371 0.006,0.17991 0.0106,0.11219 0.0762,0.17992 0.0677,0.0656 0.19261,0.0656 0.12489,0 0.1905,-0.0656 0.0677,-0.0677 0.0783,-0.17992 0.006,-0.0762 0.006,-0.17991 0,-0.10584 -0.006,-0.17569 z m 1.60232,0.91864 q -0.0318,0 -0.055,-0.0148 -0.0233,-0.0169 -0.0318,-0.0339 l -0.48472,-0.72391 v 0.71544 q 0,0.0233 -0.0169,0.0402 -0.0169,0.0169 -0.0402,0.0169 h -0.27728 q -0.0233,0 -0.0402,-0.0169 -0.0169,-0.0169 -0.0169,-0.0402 v -1.36737 q 0,-0.0233 0.0169,-0.0402 0.0169,-0.0169 0.0402,-0.0169 h 0.22013 q 0.0318,0 0.055,0.0169 0.0233,0.0148 0.0318,0.0318 l 0.48472,0.7239 v -0.71543 q 0,-0.0233 0.0169,-0.0402 0.0169,-0.0169 0.0402,-0.0169 h 0.27728 q 0.0233,0 0.0402,0.0169 0.0169,0.0169 0.0169,0.0402 v 1.36737 q 0,0.0233 -0.0169,0.0402 -0.0169,0.0169 -0.0402,0.0169 z m 1.78859,-1.48167 q 0.0233,0 0.0402,0.0169 0.0169,0.0169 0.0169,0.0402 v 0.84455 q 0,0.1905 -0.0804,0.32597 -0.0804,0.13547 -0.22648,0.20532 -0.14393,0.0699 -0.33655,0.0699 -0.19474,0 -0.34079,-0.0699 -0.14393,-0.0699 -0.22436,-0.20532 -0.0783,-0.13547 -0.0783,-0.32597 v -0.84455 q 0,-0.0233 0.0169,-0.0402 0.0169,-0.0169 0.0402,-0.0169 h 0.27728 q 0.0233,0 0.0402,0.0169 0.0169,0.0169 0.0169,0.0402 v 0.83608 q 0,0.12912 0.0635,0.20109 0.0656,0.0699 0.18839,0.0699 0.12277,0 0.18627,-0.0699 0.0656,-0.072 0.0656,-0.20109 v -0.83608 q 0,-0.0233 0.0169,-0.0402 0.0169,-0.0169 0.0402,-0.0169 z m 1.5113,0.39582 q 0,0.019 -0.0148,0.0339 -0.0127,0.0127 -0.0296,0.0127 h -0.27729 q -0.0296,0 -0.0466,-0.006 -0.0169,-0.008 -0.0381,-0.0275 -0.004,-0.004 -0.0275,-0.0275 -0.0233,-0.0254 -0.0741,-0.0445 -0.0487,-0.019 -0.1143,-0.019 -0.091,0 -0.15029,0.0254 -0.0571,0.0233 -0.0571,0.0825 0,0.0423 0.036,0.0677 0.036,0.0233 0.11006,0.0423 0.0762,0.019 0.26247,0.0572 0.23918,0.0487 0.35137,0.1524 0.11218,0.10371 0.11218,0.29633 0,0.1397 -0.0847,0.24554 -0.0826,0.10371 -0.23283,0.16086 -0.14817,0.055 -0.33655,0.055 -0.18203,0 -0.3302,-0.0635 -0.14817,-0.0635 -0.23283,-0.1651 -0.0847,-0.1016 -0.0889,-0.20955 0,-0.019 0.0127,-0.0317 0.0148,-0.0148 0.0318,-0.0148 h 0.27728 q 0.0466,0 0.0804,0.0296 0.006,0.006 0.0339,0.0381 0.0275,0.0296 0.0825,0.055 0.0571,0.0233 0.13335,0.0233 0.26247,0 0.26247,-0.11218 0,-0.036 -0.0381,-0.0593 -0.036,-0.0254 -0.10372,-0.0423 -0.0677,-0.0169 -0.2159,-0.0487 l -0.0953,-0.019 q -0.2159,-0.0466 -0.3175,-0.15452 -0.1016,-0.11006 -0.1016,-0.2921 0,-0.12276 0.0741,-0.22648 0.0741,-0.10583 0.20955,-0.16722 0.13759,-0.0635 0.31539,-0.0635 0.17145,0 0.31326,0.0656 0.14182,0.0635 0.22225,0.16087 0.0826,0.0974 0.0868,0.1905 z m 1.46685,0.52281 q 0.008,0.11007 0.0699,0.17781 0.0635,0.0677 0.19685,0.0677 0.127,0 0.18415,-0.0487 0.0572,-0.0487 0.0804,-0.11854 0.0127,-0.036 0.0254,-0.0487 0.0127,-0.0127 0.0466,-0.0127 h 0.27728 q 0.019,0 0.0318,0.0148 0.0148,0.0127 0.0148,0.0317 -0.002,0.14181 -0.091,0.26246 -0.0868,0.11854 -0.23706,0.18839 -0.15029,0.0699 -0.33232,0.0699 -0.19685,0 -0.3429,-0.0762 -0.14605,-0.0783 -0.22648,-0.20744 -0.0804,-0.13123 -0.0889,-0.28998 -0.004,-0.1016 -0.004,-0.16722 0,-0.0783 0.004,-0.20955 0.006,-0.15875 0.0868,-0.28787 0.0804,-0.13123 0.22648,-0.20743 0.14817,-0.0783 0.34502,-0.0783 0.18203,0 0.33232,0.0699 0.15028,0.0699 0.23706,0.1905 0.0889,0.11854 0.091,0.26035 0,0.019 -0.0148,0.0339 -0.0127,0.0127 -0.0318,0.0127 h -0.27728 q -0.0339,0 -0.0466,-0.0127 -0.0127,-0.0127 -0.0254,-0.0487 -0.0233,-0.0699 -0.0804,-0.11854 -0.0571,-0.0487 -0.18415,-0.0487 -0.13335,0 -0.19685,0.0677 -0.0614,0.0677 -0.0699,0.1778 -0.004,0.072 -0.004,0.1778 0,0.1016 0.004,0.1778 z m 2.48497,0.48472 q 0.008,0.0212 0.008,0.0317 0,0.0191 -0.0148,0.0339 -0.0127,0.0127 -0.0318,0.0127 h -0.2667 q -0.036,0 -0.0572,-0.0148 -0.019,-0.0169 -0.0254,-0.0381 l -0.0593,-0.17568 h -0.56303 l -0.0593,0.17568 q -0.006,0.0212 -0.0275,0.0381 -0.0191,0.0148 -0.055,0.0148 h -0.2667 q -0.019,0 -0.0339,-0.0127 -0.0127,-0.0148 -0.0127,-0.0339 0,-0.0106 0.008,-0.0317 l 0.46144,-1.3335 q 0.0106,-0.0296 0.0339,-0.0487 0.0233,-0.0212 0.0614,-0.0212 h 0.3429 q 0.0381,0 0.0614,0.0212 0.0233,0.019 0.0339,0.0487 z m -0.55668,-0.47837 -0.17145,-0.508 -0.17145,0.508 z m 1.69968,0.55669 q -0.0318,0 -0.055,-0.0148 -0.0233,-0.0169 -0.0318,-0.0339 l -0.48472,-0.72391 v 0.71544 q 0,0.0233 -0.0169,0.0402 -0.0169,0.0169 -0.0402,0.0169 h -0.27728 q -0.0233,0 -0.0402,-0.0169 -0.0169,-0.0169 -0.0169,-0.0402 v -1.36737 q 0,-0.0233 0.0169,-0.0402 0.0169,-0.0169 0.0402,-0.0169 h 0.22013 q 0.0318,0 0.055,0.0169 0.0233,0.0148 0.0318,0.0318 l 0.48471,0.7239 v -0.71543 q 0,-0.0233 0.0169,-0.0402 0.0169,-0.0169 0.0402,-0.0169 h 0.27729 q 0.0233,0 0.0402,0.0169 0.0169,0.0169 0.0169,0.0402 v 1.36737 q 0,0.0233 -0.0169,0.0402 -0.0169,0.0169 -0.0402,0.0169 z"
         id="path33" /><path
         style="text-align:end;text-anchor:end;fill:#cccccc;fill-opacity:1;stroke:#000000"
         d="m 99.403075,169.14979 q 0.02328,0 0.04022,0.0169 0.01693,0.0169 0.01693,0.0402 v 0.21379 q 0,0.0233 -0.01693,0.0402 -0.01693,0.0148 -0.04022,0.0169 -0.160867,0.0148 -0.224367,0.18626 -0.06138,0.16934 -0.06138,0.47414 0,0.3048 0.06138,0.47625 0.0635,0.17145 0.224367,0.18627 0.02328,0.002 0.04022,0.0169 0.01693,0.0169 0.01693,0.0402 v 0.21378 q 0,0.0233 -0.01693,0.0402 -0.01693,0.0169 -0.04022,0.0169 -0.325967,0 -0.497417,-0.24553 -0.169334,-0.24554 -0.169334,-0.74507 0,-0.49954 0.169334,-0.74295 0.17145,-0.24554 0.497417,-0.24554 z m 0.924985,0.16087 q 0.27517,0 0.42969,0.127 0.15663,0.12488 0.15663,0.3683 0,0.24342 -0.15663,0.37042 -0.15452,0.127 -0.42969,0.127 h -0.27093 v 0.4318 q 0,0.0233 -0.0169,0.0402 -0.0169,0.0169 -0.0402,0.0169 h -0.277284 q -0.02328,0 -0.04022,-0.0169 -0.01693,-0.0169 -0.01693,-0.0402 v -1.36737 q 0,-0.0233 0.01693,-0.0402 0.01693,-0.0169 0.04022,-0.0169 z m -0.0106,0.66252 q 0.0931,0 0.14817,-0.0402 0.0572,-0.0423 0.0572,-0.127 0,-0.0847 -0.0572,-0.12488 -0.055,-0.0423 -0.14817,-0.0423 h -0.26035 v 0.33444 z m 1.83727,0.48048 q 0.0233,0 0.0402,0.0169 0.0169,0.0169 0.0169,0.0402 v 0.22437 q 0,0.0233 -0.0169,0.0402 -0.0169,0.0169 -0.0402,0.0169 h -0.98002 q -0.0233,0 -0.0402,-0.0169 -0.0169,-0.0169 -0.0169,-0.0402 v -1.36737 q 0,-0.0233 0.0169,-0.0402 0.0169,-0.0169 0.0402,-0.0169 h 0.27729 q 0.0233,0 0.0402,0.0169 0.0169,0.0169 0.0169,0.0402 v 1.08585 z m 1.54305,0.26035 q 0.008,0.0212 0.008,0.0317 0,0.0191 -0.0148,0.0339 -0.0127,0.0127 -0.0318,0.0127 h -0.2667 q -0.036,0 -0.0572,-0.0148 -0.019,-0.0169 -0.0254,-0.0381 l -0.0593,-0.17568 h -0.56304 l -0.0593,0.17568 q -0.006,0.0212 -0.0275,0.0381 -0.0191,0.0148 -0.055,0.0148 h -0.2667 q -0.019,0 -0.0339,-0.0127 -0.0127,-0.0148 -0.0127,-0.0339 0,-0.0106 0.008,-0.0317 l 0.46144,-1.3335 q 0.0106,-0.0296 0.0339,-0.0487 0.0233,-0.0212 0.0614,-0.0212 h 0.3429 q 0.0381,0 0.0614,0.0212 0.0233,0.019 0.0339,0.0487 z m -0.55668,-0.47837 -0.17145,-0.508 -0.17145,0.508 z m 1.07738,-0.006 q 0.008,0.11007 0.0698,0.17781 0.0635,0.0677 0.19686,0.0677 0.127,0 0.18415,-0.0487 0.0572,-0.0487 0.0804,-0.11854 0.0127,-0.036 0.0254,-0.0487 0.0127,-0.0127 0.0466,-0.0127 h 0.27728 q 0.019,0 0.0318,0.0148 0.0148,0.0127 0.0148,0.0317 -0.002,0.14182 -0.091,0.26247 -0.0868,0.11854 -0.23707,0.18839 -0.15028,0.0699 -0.33231,0.0699 -0.19686,0 -0.34291,-0.0762 -0.14605,-0.0783 -0.22648,-0.20744 -0.0804,-0.13123 -0.0889,-0.28998 -0.004,-0.1016 -0.004,-0.16722 0,-0.0783 0.004,-0.20955 0.006,-0.15875 0.0868,-0.28787 0.0804,-0.13123 0.22649,-0.20743 0.14816,-0.0783 0.34502,-0.0783 0.18203,0 0.33231,0.0699 0.15029,0.0699 0.23707,0.1905 0.0889,0.11854 0.091,0.26035 0,0.019 -0.0148,0.0339 -0.0127,0.0127 -0.0318,0.0127 h -0.27728 q -0.0339,0 -0.0466,-0.0127 -0.0127,-0.0127 -0.0254,-0.0487 -0.0233,-0.0699 -0.0804,-0.11854 -0.0571,-0.0487 -0.18415,-0.0487 -0.13336,0 -0.19686,0.0677 -0.0614,0.0677 -0.0698,0.1778 -0.004,0.072 -0.004,0.1778 0,0.1016 0.004,0.1778 z m 1.53671,-0.0127 h 0.60536 q 0.0233,0 0.0402,-0.0169 0.0169,-0.0169 0.0169,-0.0402 v -0.22436 q 0,-0.0233 -0.0169,-0.0402 -0.0169,-0.0169 -0.0402,-0.0169 h -0.60536 v -0.2286 h 0.65193 q 0.0233,0 0.0402,-0.0169 0.0169,-0.0169 0.0169,-0.0402 v -0.22437 q 0,-0.0233 -0.0169,-0.0402 -0.0169,-0.0169 -0.0402,-0.0169 h -0.98637 q -0.0233,0 -0.0402,0.0169 -0.0169,0.0169 -0.0169,0.0402 v 1.36737 q 0,0.0233 0.0169,0.0402 0.0169,0.0169 0.0402,0.0169 h 1.0033 q 0.0233,0 0.0402,-0.0169 0.0169,-0.0169 0.0169,-0.0402 v -0.22437 q 0,-0.0233 -0.0169,-0.0402 -0.0169,-0.0169 -0.0402,-0.0169 h -0.66886 z m 2.25637,-0.31538 q 0.004,0.11853 0.004,0.1524 0,0.0339 -0.004,0.14817 -0.006,0.17357 -0.091,0.30692 -0.0825,0.13335 -0.2286,0.20955 -0.14605,0.0741 -0.33867,0.0741 h -0.5715 q -0.0233,0 -0.0402,-0.0169 -0.0169,-0.0169 -0.0169,-0.0402 v -1.36737 q 0,-0.0233 0.0169,-0.0402 0.0169,-0.0169 0.0402,-0.0169 h 0.56092 q 0.19261,0 0.34078,0.0762 0.15029,0.0741 0.23495,0.20955 0.0868,0.13335 0.0931,0.3048 z m -0.89536,-0.25188 v 0.80433 h 0.22649 q 0.2667,0 0.27728,-0.24342 0.004,-0.12276 0.004,-0.16086 0,-0.0423 -0.004,-0.15664 -0.006,-0.12065 -0.0804,-0.18203 -0.072,-0.0614 -0.20744,-0.0614 z m 1.58327,1.143 q -0.0233,0 -0.0402,-0.0169 -0.0169,-0.0169 -0.0169,-0.0402 v -1.36737 q 0,-0.0233 0.0169,-0.0402 0.0169,-0.0169 0.0402,-0.0169 h 0.68157 q 0.17992,0 0.2921,0.0635 0.11219,0.0635 0.16087,0.16298 0.0508,0.0974 0.0508,0.21379 0,0.10583 -0.0381,0.17145 -0.036,0.0635 -0.0804,0.0974 0.0804,0.055 0.1143,0.13124 0.0339,0.0741 0.0339,0.18203 0,0.19685 -0.11853,0.32809 -0.11853,0.13123 -0.37042,0.13123 z m 0.33444,-1.15359 v 0.2413 h 0.32808 q 0.0635,0 0.0953,-0.0318 0.0339,-0.0317 0.0339,-0.0889 0,-0.0572 -0.0339,-0.0889 -0.0318,-0.0317 -0.0953,-0.0317 z m 0.34925,0.82551 q 0.0635,0 0.1016,-0.036 0.0381,-0.036 0.0381,-0.0931 0,-0.0571 -0.0381,-0.0931 -0.0381,-0.036 -0.1016,-0.036 h -0.34925 v 0.25824 z m 1.48167,0.27093 q 0,0.0233 -0.0169,0.0402 -0.0169,0.0169 -0.0402,0.0169 h -0.27729 q -0.0233,0 -0.0402,-0.0169 -0.0169,-0.0169 -0.0169,-0.0402 v -0.45085 l -0.48895,-0.89959 q -0.008,-0.0148 -0.008,-0.0275 0,-0.019 0.0127,-0.0317 0.0148,-0.0148 0.0339,-0.0148 h 0.28999 q 0.036,0 0.0572,0.019 0.0233,0.0169 0.0318,0.0339 l 0.2667,0.5207 0.26881,-0.5207 q 0.008,-0.0169 0.0296,-0.0339 0.0233,-0.019 0.0593,-0.019 h 0.28999 q 0.019,0 0.0317,0.0148 0.0148,0.0127 0.0148,0.0317 0,0.0127 -0.008,0.0275 l -0.48895,0.89959 z m 2.286,-1.0287 q 0,0.019 -0.0148,0.0339 -0.0127,0.0127 -0.0296,0.0127 h -0.27728 q -0.0296,0 -0.0466,-0.006 -0.0169,-0.008 -0.0381,-0.0275 -0.004,-0.004 -0.0275,-0.0275 -0.0233,-0.0254 -0.0741,-0.0445 -0.0487,-0.019 -0.1143,-0.019 -0.091,0 -0.15028,0.0254 -0.0572,0.0233 -0.0572,0.0825 0,0.0423 0.036,0.0677 0.036,0.0233 0.11007,0.0423 0.0762,0.019 0.26246,0.0572 0.23919,0.0487 0.35137,0.1524 0.11218,0.10371 0.11218,0.29633 0,0.1397 -0.0847,0.24554 -0.0825,0.10371 -0.23284,0.16086 -0.14816,0.055 -0.33655,0.055 -0.18203,0 -0.3302,-0.0635 -0.14816,-0.0635 -0.23283,-0.1651 -0.0847,-0.1016 -0.0889,-0.20955 0,-0.019 0.0127,-0.0317 0.0148,-0.0148 0.0318,-0.0148 h 0.27728 q 0.0466,0 0.0804,0.0296 0.006,0.006 0.0339,0.0381 0.0275,0.0296 0.0825,0.055 0.0572,0.0233 0.13335,0.0233 0.26247,0 0.26247,-0.11218 0,-0.036 -0.0381,-0.0593 -0.036,-0.0254 -0.10372,-0.0423 -0.0677,-0.0169 -0.2159,-0.0487 l -0.0952,-0.019 q -0.2159,-0.0466 -0.3175,-0.15452 -0.1016,-0.11006 -0.1016,-0.2921 0,-0.12276 0.0741,-0.22648 0.0741,-0.10583 0.20955,-0.16722 0.13758,-0.0635 0.31538,-0.0635 0.17145,0 0.31327,0.0656 0.14181,0.0635 0.22225,0.16087 0.0825,0.0974 0.0868,0.1905 z m 1.34197,-0.39582 q 0.0233,0 0.0402,0.0169 0.0169,0.0169 0.0169,0.0402 v 0.22437 q 0,0.0233 -0.0169,0.0402 -0.0169,0.0169 -0.0402,0.0169 h -0.37253 v 1.08585 q 0,0.0233 -0.0169,0.0402 -0.0169,0.0169 -0.0402,0.0169 h -0.27729 q -0.0233,0 -0.0402,-0.0169 -0.0169,-0.0169 -0.0169,-0.0402 v -1.08585 h -0.37253 q -0.0233,0 -0.0402,-0.0169 -0.0169,-0.0169 -0.0169,-0.0402 v -0.22437 q 0,-0.0233 0.0169,-0.0402 0.0169,-0.0169 0.0402,-0.0169 z m 1.46262,0 q 0.0233,0 0.0402,0.0169 0.0169,0.0169 0.0169,0.0402 v 0.84455 q 0,0.1905 -0.0804,0.32597 -0.0804,0.13547 -0.22649,0.20532 -0.14393,0.0699 -0.33655,0.0699 -0.19473,0 -0.34078,-0.0699 -0.14394,-0.0699 -0.22437,-0.20532 -0.0783,-0.13547 -0.0783,-0.32597 v -0.84455 q 0,-0.0233 0.0169,-0.0402 0.0169,-0.0169 0.0402,-0.0169 h 0.27729 q 0.0233,0 0.0402,0.0169 0.0169,0.0169 0.0169,0.0402 v 0.83608 q 0,0.12912 0.0635,0.20109 0.0656,0.0699 0.18838,0.0699 0.12277,0 0.18627,-0.0699 0.0656,-0.072 0.0656,-0.20109 v -0.83608 q 0,-0.0233 0.0169,-0.0402 0.0169,-0.0169 0.0402,-0.0169 z m 1.6256,0.59055 q 0.004,0.11853 0.004,0.1524 0,0.0339 -0.004,0.14817 -0.006,0.17357 -0.091,0.30692 -0.0825,0.13335 -0.2286,0.20955 -0.14605,0.0741 -0.33866,0.0741 h -0.5715 q -0.0233,0 -0.0402,-0.0169 -0.0169,-0.0169 -0.0169,-0.0402 v -1.36737 q 0,-0.0233 0.0169,-0.0402 0.0169,-0.0169 0.0402,-0.0169 h 0.56091 q 0.19262,0 0.34079,0.0762 0.15028,0.0741 0.23495,0.20955 0.0868,0.13335 0.0931,0.3048 z m -0.89535,-0.25188 v 0.80433 h 0.22648 q 0.2667,0 0.27729,-0.24342 0.004,-0.12276 0.004,-0.16086 0,-0.0423 -0.004,-0.15664 -0.006,-0.12065 -0.0804,-0.18203 -0.072,-0.0614 -0.20743,-0.0614 z m 1.53035,0.56726 h 0.60537 q 0.0233,0 0.0402,-0.0169 0.0169,-0.0169 0.0169,-0.0402 v -0.22436 q 0,-0.0233 -0.0169,-0.0402 -0.0169,-0.0169 -0.0402,-0.0169 h -0.60537 v -0.2286 h 0.65193 q 0.0233,0 0.0402,-0.0169 0.0169,-0.0169 0.0169,-0.0402 v -0.22437 q 0,-0.0233 -0.0169,-0.0402 -0.0169,-0.0169 -0.0402,-0.0169 h -0.98636 q -0.0233,0 -0.0402,0.0169 -0.0169,0.0169 -0.0169,0.0402 v 1.36737 q 0,0.0233 0.0169,0.0402 0.0169,0.0169 0.0402,0.0169 h 1.0033 q 0.0233,0 0.0402,-0.0169 0.0169,-0.0169 0.0169,-0.0402 v -0.22437 q 0,-0.0233 -0.0169,-0.0402 -0.0169,-0.0169 -0.0402,-0.0169 h -0.66887 z m 1.93252,0.57574 q -0.0318,0 -0.055,-0.0148 -0.0233,-0.0169 -0.0318,-0.0339 l -0.48472,-0.72391 v 0.71544 q 0,0.0233 -0.0169,0.0402 -0.0169,0.0169 -0.0402,0.0169 h -0.27729 q -0.0233,0 -0.0402,-0.0169 -0.0169,-0.0169 -0.0169,-0.0402 v -1.36737 q 0,-0.0233 0.0169,-0.0402 0.0169,-0.0169 0.0402,-0.0169 h 0.22014 q 0.0318,0 0.055,0.0169 0.0233,0.0148 0.0317,0.0318 l 0.48472,0.7239 v -0.71543 q 0,-0.0233 0.0169,-0.0402 0.0169,-0.0169 0.0402,-0.0169 h 0.27728 q 0.0233,0 0.0402,0.0169 0.0169,0.0169 0.0169,0.0402 v 1.36737 q 0,0.0233 -0.0169,0.0402 -0.0169,0.0169 -0.0402,0.0169 z m 1.66158,-1.48167 q 0.0233,0 0.0402,0.0169 0.0169,0.0169 0.0169,0.0402 v 0.22437 q 0,0.0233 -0.0169,0.0402 -0.0169,0.0169 -0.0402,0.0169 h -0.37253 v 1.08585 q 0,0.0233 -0.0169,0.0402 -0.0169,0.0169 -0.0402,0.0169 h -0.27728 q -0.0233,0 -0.0402,-0.0169 -0.0169,-0.0169 -0.0169,-0.0402 v -1.08585 h -0.37254 q -0.0233,0 -0.0402,-0.0169 -0.0169,-0.0169 -0.0169,-0.0402 v -0.22437 q 0,-0.0233 0.0169,-0.0402 0.0169,-0.0169 0.0402,-0.0169 z m 1.38008,0.39582 q 0,0.019 -0.0148,0.0339 -0.0127,0.0127 -0.0296,0.0127 h -0.27729 q -0.0296,0 -0.0466,-0.006 -0.0169,-0.008 -0.0381,-0.0275 -0.004,-0.004 -0.0275,-0.0275 -0.0233,-0.0254 -0.0741,-0.0445 -0.0487,-0.019 -0.1143,-0.019 -0.091,0 -0.15029,0.0254 -0.0572,0.0233 -0.0572,0.0825 0,0.0423 0.036,0.0677 0.036,0.0233 0.11006,0.0423 0.0762,0.019 0.26247,0.0572 0.23918,0.0487 0.35137,0.1524 0.11218,0.10371 0.11218,0.29633 0,0.1397 -0.0847,0.24554 -0.0825,0.10371 -0.23283,0.16086 -0.14817,0.055 -0.33655,0.055 -0.18203,0 -0.3302,-0.0635 -0.14817,-0.0635 -0.23283,-0.1651 -0.0847,-0.1016 -0.0889,-0.20955 0,-0.019 0.0127,-0.0317 0.0148,-0.0148 0.0318,-0.0148 h 0.27728 q 0.0466,0 0.0804,0.0296 0.006,0.006 0.0339,0.0381 0.0275,0.0296 0.0825,0.055 0.0572,0.0233 0.13335,0.0233 0.26247,0 0.26247,-0.11218 0,-0.036 -0.0381,-0.0593 -0.036,-0.0254 -0.10372,-0.0423 -0.0677,-0.0169 -0.2159,-0.0487 l -0.0952,-0.019 q -0.2159,-0.0466 -0.3175,-0.15452 -0.1016,-0.11006 -0.1016,-0.2921 0,-0.12276 0.0741,-0.22648 0.0741,-0.10583 0.20955,-0.16722 0.13759,-0.0635 0.31539,-0.0635 0.17145,0 0.31326,0.0656 0.14182,0.0635 0.22225,0.16087 0.0825,0.0974 0.0868,0.1905 z m 0.22013,1.4224 q -0.0233,0 -0.0402,-0.0169 -0.0169,-0.0169 -0.0169,-0.0402 v -0.21378 q 0,-0.0233 0.0169,-0.0402 0.0169,-0.0148 0.0402,-0.0169 0.16087,-0.0148 0.22225,-0.18627 0.0635,-0.17145 0.0635,-0.47625 0,-0.3048 -0.0635,-0.47414 -0.0614,-0.17145 -0.22225,-0.18626 -0.0233,-0.002 -0.0402,-0.0169 -0.0169,-0.0169 -0.0169,-0.0402 v -0.21379 q 0,-0.0233 0.0169,-0.0402 0.0169,-0.0169 0.0402,-0.0169 0.32597,0 0.4953,0.24554 0.17145,0.24341 0.17145,0.74295 0,0.49953 -0.17145,0.74507 -0.16933,0.24553 -0.4953,0.24553 z"
         id="path34" /></g><g
       id="text29"
       style="font-weight:bold;font-size:2.11667px;line-height:1;font-family:Rubik;-inkscape-font-specification:'Rubik Bold';fill:#cccccc;fill-opacity:1;stroke:#000000;stroke-width:0.25;stroke-linecap:round;stroke-linejoin:round;paint-order:markers stroke fill"
       aria-label="BONUS  CAN&#10;(PLACED BY SUPERVISOR)"><path
         style="text-align:end;text-anchor:end;fill:#cccccc;fill-opacity:1;stroke:#000000"
         d="m 111.40672,157.77567 q -0.0233,0 -0.0402,-0.0169 -0.0169,-0.0169 -0.0169,-0.0402 v -1.36737 q 0,-0.0233 0.0169,-0.0402 0.0169,-0.0169 0.0402,-0.0169 h 0.68156 q 0.17992,0 0.29211,0.0635 0.11218,0.0635 0.16086,0.16298 0.0508,0.0974 0.0508,0.21378 0,0.10584 -0.0381,0.17145 -0.036,0.0635 -0.0804,0.0974 0.0804,0.055 0.1143,0.13123 0.0339,0.0741 0.0339,0.18204 0,0.19685 -0.11854,0.32808 -0.11853,0.13124 -0.37042,0.13124 z m 0.33443,-1.15359 v 0.2413 h 0.32808 q 0.0635,0 0.0952,-0.0318 0.0339,-0.0317 0.0339,-0.0889 0,-0.0572 -0.0339,-0.0889 -0.0318,-0.0317 -0.0952,-0.0317 z m 0.34925,0.8255 q 0.0635,0 0.1016,-0.036 0.0381,-0.036 0.0381,-0.0931 0,-0.0571 -0.0381,-0.0931 -0.0381,-0.036 -0.1016,-0.036 h -0.34925 v 0.25823 z m 1.37795,-1.17475 q 0.20109,0 0.34714,0.0762 0.14605,0.0762 0.22436,0.20743 0.0804,0.12912 0.0889,0.28999 0.004,0.0593 0.004,0.1905 0,0.12911 -0.004,0.18626 -0.008,0.16087 -0.0889,0.2921 -0.0783,0.12912 -0.22436,0.20532 -0.14605,0.0762 -0.34714,0.0762 -0.20108,0 -0.34713,-0.0762 -0.14605,-0.0762 -0.22648,-0.20532 -0.0783,-0.13123 -0.0868,-0.2921 -0.004,-0.1143 -0.004,-0.18626 0,-0.072 0.004,-0.1905 0.008,-0.16087 0.0868,-0.28999 0.0804,-0.13123 0.22648,-0.20743 0.14605,-0.0762 0.34713,-0.0762 z m 0.26882,0.5842 q -0.0106,-0.11218 -0.0783,-0.1778 -0.0656,-0.0677 -0.1905,-0.0677 -0.12488,0 -0.19261,0.0677 -0.0656,0.0656 -0.0762,0.1778 -0.006,0.0699 -0.006,0.17568 0,0.10372 0.006,0.17992 0.0106,0.11218 0.0762,0.17992 0.0677,0.0656 0.19261,0.0656 0.12489,0 0.1905,-0.0656 0.0677,-0.0677 0.0783,-0.17992 0.006,-0.0762 0.006,-0.17992 0,-0.10583 -0.006,-0.17568 z m 1.60232,0.91864 q -0.0318,0 -0.055,-0.0148 -0.0233,-0.0169 -0.0318,-0.0339 l -0.48472,-0.7239 v 0.71544 q 0,0.0233 -0.0169,0.0402 -0.0169,0.0169 -0.0402,0.0169 h -0.27728 q -0.0233,0 -0.0402,-0.0169 -0.0169,-0.0169 -0.0169,-0.0402 v -1.36737 q 0,-0.0233 0.0169,-0.0402 0.0169,-0.0169 0.0402,-0.0169 h 0.22013 q 0.0318,0 0.055,0.0169 0.0233,0.0148 0.0318,0.0317 l 0.48472,0.7239 v -0.71543 q 0,-0.0233 0.0169,-0.0402 0.0169,-0.0169 0.0402,-0.0169 h 0.27728 q 0.0233,0 0.0402,0.0169 0.0169,0.0169 0.0169,0.0402 v 1.36737 q 0,0.0233 -0.0169,0.0402 -0.0169,0.0169 -0.0402,0.0169 z m 1.78859,-1.48167 q 0.0233,0 0.0402,0.0169 0.0169,0.0169 0.0169,0.0402 v 0.84455 q 0,0.1905 -0.0804,0.32596 -0.0804,0.13547 -0.22648,0.20532 -0.14393,0.0699 -0.33655,0.0699 -0.19474,0 -0.34079,-0.0699 -0.14393,-0.0699 -0.22436,-0.20532 -0.0783,-0.13546 -0.0783,-0.32596 v -0.84455 q 0,-0.0233 0.0169,-0.0402 0.0169,-0.0169 0.0402,-0.0169 h 0.27728 q 0.0233,0 0.0402,0.0169 0.0169,0.0169 0.0169,0.0402 v 0.83608 q 0,0.12912 0.0635,0.20108 0.0656,0.0699 0.18839,0.0699 0.12277,0 0.18627,-0.0699 0.0656,-0.072 0.0656,-0.20108 v -0.83608 q 0,-0.0233 0.0169,-0.0402 0.0169,-0.0169 0.0402,-0.0169 z m 1.5113,0.39581 q 0,0.019 -0.0148,0.0339 -0.0127,0.0127 -0.0296,0.0127 h -0.27729 q -0.0296,0 -0.0466,-0.006 -0.0169,-0.008 -0.0381,-0.0275 -0.004,-0.004 -0.0275,-0.0275 -0.0233,-0.0254 -0.0741,-0.0445 -0.0487,-0.019 -0.1143,-0.019 -0.091,0 -0.15029,0.0254 -0.0571,0.0233 -0.0571,0.0825 0,0.0423 0.036,0.0677 0.036,0.0233 0.11006,0.0423 0.0762,0.019 0.26247,0.0572 0.23918,0.0487 0.35137,0.1524 0.11218,0.10372 0.11218,0.29634 0,0.1397 -0.0847,0.24553 -0.0826,0.10372 -0.23283,0.16087 -0.14817,0.055 -0.33655,0.055 -0.18203,0 -0.3302,-0.0635 -0.14817,-0.0635 -0.23283,-0.1651 -0.0847,-0.1016 -0.0889,-0.20955 0,-0.019 0.0127,-0.0317 0.0148,-0.0148 0.0318,-0.0148 h 0.27728 q 0.0466,0 0.0804,0.0296 0.006,0.006 0.0339,0.0381 0.0275,0.0296 0.0825,0.055 0.0571,0.0233 0.13335,0.0233 0.26247,0 0.26247,-0.11218 0,-0.036 -0.0381,-0.0593 -0.036,-0.0254 -0.10372,-0.0423 -0.0677,-0.0169 -0.2159,-0.0487 l -0.0953,-0.019 q -0.2159,-0.0466 -0.3175,-0.15452 -0.1016,-0.11007 -0.1016,-0.2921 0,-0.12277 0.0741,-0.22648 0.0741,-0.10584 0.20955,-0.16722 0.13759,-0.0635 0.31539,-0.0635 0.17145,0 0.31326,0.0656 0.14182,0.0635 0.22225,0.16086 0.0826,0.0974 0.0868,0.1905 z m 1.46685,0.52282 q 0.008,0.11007 0.0699,0.1778 0.0635,0.0677 0.19685,0.0677 0.127,0 0.18415,-0.0487 0.0572,-0.0487 0.0804,-0.11853 0.0127,-0.036 0.0254,-0.0487 0.0127,-0.0127 0.0466,-0.0127 h 0.27728 q 0.019,0 0.0318,0.0148 0.0148,0.0127 0.0148,0.0317 -0.002,0.14182 -0.091,0.26247 -0.0868,0.11853 -0.23706,0.18838 -0.15029,0.0699 -0.33232,0.0699 -0.19685,0 -0.3429,-0.0762 -0.14605,-0.0783 -0.22648,-0.20743 -0.0804,-0.13124 -0.0889,-0.28999 -0.004,-0.1016 -0.004,-0.16721 0,-0.0783 0.004,-0.20955 0.006,-0.15875 0.0868,-0.28787 0.0804,-0.13123 0.22648,-0.20743 0.14817,-0.0783 0.34502,-0.0783 0.18203,0 0.33232,0.0699 0.15028,0.0699 0.23706,0.1905 0.0889,0.11853 0.091,0.26035 0,0.019 -0.0148,0.0339 -0.0127,0.0127 -0.0318,0.0127 h -0.27728 q -0.0339,0 -0.0466,-0.0127 -0.0127,-0.0127 -0.0254,-0.0487 -0.0233,-0.0699 -0.0804,-0.11853 -0.0571,-0.0487 -0.18415,-0.0487 -0.13335,0 -0.19685,0.0677 -0.0614,0.0677 -0.0699,0.1778 -0.004,0.072 -0.004,0.1778 0,0.1016 0.004,0.1778 z m 2.48497,0.48472 q 0.008,0.0212 0.008,0.0317 0,0.0191 -0.0148,0.0339 -0.0127,0.0127 -0.0318,0.0127 h -0.2667 q -0.036,0 -0.0572,-0.0148 -0.019,-0.0169 -0.0254,-0.0381 l -0.0593,-0.17569 h -0.56303 l -0.0593,0.17569 q -0.006,0.0212 -0.0275,0.0381 -0.0191,0.0148 -0.055,0.0148 h -0.2667 q -0.019,0 -0.0339,-0.0127 -0.0127,-0.0148 -0.0127,-0.0339 0,-0.0106 0.008,-0.0317 l 0.46144,-1.3335 q 0.0106,-0.0296 0.0339,-0.0487 0.0233,-0.0212 0.0614,-0.0212 h 0.3429 q 0.0381,0 0.0614,0.0212 0.0233,0.0191 0.0339,0.0487 z m -0.55668,-0.47837 -0.17145,-0.508 -0.17145,0.508 z m 1.69968,0.55669 q -0.0318,0 -0.055,-0.0148 -0.0233,-0.0169 -0.0318,-0.0339 l -0.48472,-0.7239 v 0.71544 q 0,0.0233 -0.0169,0.0402 -0.0169,0.0169 -0.0402,0.0169 h -0.27728 q -0.0233,0 -0.0402,-0.0169 -0.0169,-0.0169 -0.0169,-0.0402 v -1.36737 q 0,-0.0233 0.0169,-0.0402 0.0169,-0.0169 0.0402,-0.0169 h 0.22013 q 0.0318,0 0.055,0.0169 0.0233,0.0148 0.0318,0.0317 l 0.48471,0.7239 v -0.71543 q 0,-0.0233 0.0169,-0.0402 0.0169,-0.0169 0.0402,-0.0169 h 0.27729 q 0.0233,0 0.0402,0.0169 0.0169,0.0169 0.0169,0.0402 v 1.36737 q 0,0.0233 -0.0169,0.0402 -0.0169,0.0169 -0.0402,0.0169 z"
         id="path35" /><path
         style="text-align:end;text-anchor:end;fill:#cccccc;fill-opacity:1;stroke:#000000"
         d="m 97.059925,158.2498 q 0.02328,0 0.04022,0.0169 0.01693,0.0169 0.01693,0.0402 v 0.21378 q 0,0.0233 -0.01693,0.0402 -0.01693,0.0148 -0.04022,0.0169 -0.160867,0.0148 -0.224367,0.18627 -0.06138,0.16933 -0.06138,0.47413 0,0.3048 0.06138,0.47625 0.0635,0.17146 0.224367,0.18627 0.02328,0.002 0.04022,0.0169 0.01693,0.0169 0.01693,0.0402 v 0.21379 q 0,0.0233 -0.01693,0.0402 -0.01693,0.0169 -0.04022,0.0169 -0.325967,0 -0.497418,-0.24554 -0.169333,-0.24553 -0.169333,-0.74507 0,-0.49953 0.169333,-0.74295 0.171451,-0.24553 0.497418,-0.24553 z m 0.924987,0.16087 q 0.275167,0 0.429684,0.127 0.156633,0.12488 0.156633,0.3683 0,0.24341 -0.156633,0.37041 -0.154517,0.127 -0.429684,0.127 h -0.270934 v 0.43181 q 0,0.0233 -0.01693,0.0402 -0.01693,0.0169 -0.04022,0.0169 h -0.277284 q -0.02328,0 -0.04022,-0.0169 -0.01693,-0.0169 -0.01693,-0.0402 v -1.36737 q 0,-0.0233 0.01693,-0.0402 0.01693,-0.0169 0.04022,-0.0169 z m -0.01058,0.66251 q 0.09313,0 0.148167,-0.0402 0.05715,-0.0423 0.05715,-0.127 0,-0.0847 -0.05715,-0.12489 -0.05503,-0.0423 -0.148167,-0.0423 h -0.26035 v 0.33443 z m 1.837272,0.48049 q 0.02328,0 0.04022,0.0169 0.01693,0.0169 0.01693,0.0402 v 0.22437 q 0,0.0233 -0.01693,0.0402 -0.01693,0.0169 -0.04022,0.0169 h -0.980019 q -0.02328,0 -0.04022,-0.0169 -0.01693,-0.0169 -0.01693,-0.0402 v -1.36737 q 0,-0.0233 0.01693,-0.0402 0.01693,-0.0169 0.04022,-0.0169 h 0.277284 q 0.02328,0 0.04022,0.0169 0.01693,0.0169 0.01693,0.0402 v 1.08585 z m 1.543046,0.26035 q 0.008,0.0212 0.008,0.0317 0,0.0191 -0.0148,0.0339 -0.0127,0.0127 -0.0317,0.0127 h -0.2667 q -0.036,0 -0.0572,-0.0148 -0.019,-0.0169 -0.0254,-0.0381 l -0.0593,-0.17569 H 100.345 l -0.0593,0.17569 q -0.006,0.0212 -0.0275,0.0381 -0.019,0.0148 -0.055,0.0148 h -0.266696 q -0.01905,0 -0.03387,-0.0127 -0.0127,-0.0148 -0.0127,-0.0339 0,-0.0106 0.0085,-0.0317 l 0.461436,-1.3335 q 0.0106,-0.0296 0.0339,-0.0487 0.0233,-0.0212 0.0614,-0.0212 h 0.3429 q 0.0381,0 0.0614,0.0212 0.0233,0.0191 0.0339,0.0487 z m -0.55668,-0.47837 -0.17145,-0.508 -0.17145,0.508 z m 1.07738,-0.006 q 0.008,0.11007 0.0699,0.1778 0.0635,0.0677 0.19685,0.0677 0.12701,0 0.18416,-0.0487 0.0571,-0.0487 0.0804,-0.11853 0.0127,-0.036 0.0254,-0.0487 0.0127,-0.0127 0.0466,-0.0127 h 0.27728 q 0.0191,0 0.0318,0.0148 0.0148,0.0127 0.0148,0.0317 -0.002,0.14182 -0.091,0.26247 -0.0868,0.11853 -0.23707,0.18838 -0.15028,0.0699 -0.33232,0.0699 -0.19685,0 -0.3429,-0.0762 -0.14605,-0.0783 -0.22648,-0.20743 -0.0804,-0.13124 -0.0889,-0.28999 -0.004,-0.1016 -0.004,-0.16721 0,-0.0783 0.004,-0.20955 0.006,-0.15875 0.0868,-0.28787 0.0804,-0.13123 0.22649,-0.20743 0.14816,-0.0783 0.34501,-0.0783 0.18204,0 0.33232,0.0699 0.15029,0.0699 0.23707,0.1905 0.0889,0.11853 0.091,0.26035 0,0.019 -0.0148,0.0339 -0.0127,0.0127 -0.0318,0.0127 h -0.27728 q -0.0339,0 -0.0466,-0.0127 -0.0127,-0.0127 -0.0254,-0.0487 -0.0233,-0.0699 -0.0804,-0.11853 -0.0572,-0.0487 -0.18416,-0.0487 -0.13335,0 -0.19685,0.0677 -0.0614,0.0677 -0.0699,0.1778 -0.004,0.072 -0.004,0.1778 0,0.1016 0.004,0.1778 z m 1.53671,-0.0127 h 0.60536 q 0.0233,0 0.0402,-0.0169 0.0169,-0.0169 0.0169,-0.0402 v -0.22437 q 0,-0.0233 -0.0169,-0.0402 -0.0169,-0.0169 -0.0402,-0.0169 h -0.60536 v -0.2286 h 0.65193 q 0.0233,0 0.0402,-0.0169 0.0169,-0.0169 0.0169,-0.0402 v -0.22436 q 0,-0.0233 -0.0169,-0.0402 -0.0169,-0.0169 -0.0402,-0.0169 h -0.98637 q -0.0233,0 -0.0402,0.0169 -0.0169,0.0169 -0.0169,0.0402 v 1.36737 q 0,0.0233 0.0169,0.0402 0.0169,0.0169 0.0402,0.0169 h 1.0033 q 0.0233,0 0.0402,-0.0169 0.0169,-0.0169 0.0169,-0.0402 v -0.22437 q 0,-0.0233 -0.0169,-0.0402 -0.0169,-0.0169 -0.0402,-0.0169 h -0.66886 z m 2.25637,-0.31538 q 0.004,0.11853 0.004,0.1524 0,0.0339 -0.004,0.14816 -0.006,0.17357 -0.091,0.30692 -0.0825,0.13335 -0.2286,0.20955 -0.14605,0.0741 -0.33867,0.0741 h -0.5715 q -0.0233,0 -0.0402,-0.0169 -0.0169,-0.0169 -0.0169,-0.0402 v -1.36737 q 0,-0.0233 0.0169,-0.0402 0.0169,-0.0169 0.0402,-0.0169 h 0.56092 q 0.19261,0 0.34078,0.0762 0.15029,0.0741 0.23495,0.20955 0.0868,0.13335 0.0931,0.3048 z m -0.89536,-0.25189 v 0.80434 h 0.22649 q 0.2667,0 0.27728,-0.24342 0.004,-0.12277 0.004,-0.16087 0,-0.0423 -0.004,-0.15663 -0.006,-0.12065 -0.0804,-0.18203 -0.072,-0.0614 -0.20744,-0.0614 z m 1.58327,1.14301 q -0.0233,0 -0.0402,-0.0169 -0.0169,-0.0169 -0.0169,-0.0402 v -1.36737 q 0,-0.0233 0.0169,-0.0402 0.0169,-0.0169 0.0402,-0.0169 h 0.68157 q 0.17992,0 0.2921,0.0635 0.11218,0.0635 0.16087,0.16298 0.0508,0.0974 0.0508,0.21378 0,0.10584 -0.0381,0.17145 -0.036,0.0635 -0.0804,0.0974 0.0804,0.055 0.11431,0.13123 0.0339,0.0741 0.0339,0.18204 0,0.19685 -0.11853,0.32808 -0.11854,0.13124 -0.37042,0.13124 z m 0.33444,-1.15359 v 0.2413 h 0.32808 q 0.0635,0 0.0952,-0.0318 0.0339,-0.0317 0.0339,-0.0889 0,-0.0572 -0.0339,-0.0889 -0.0318,-0.0317 -0.0952,-0.0317 z m 0.34925,0.8255 q 0.0635,0 0.1016,-0.036 0.0381,-0.036 0.0381,-0.0931 0,-0.0571 -0.0381,-0.0931 -0.0381,-0.036 -0.1016,-0.036 h -0.34925 v 0.25823 z m 1.48167,0.27094 q 0,0.0233 -0.0169,0.0402 -0.0169,0.0169 -0.0402,0.0169 h -0.27729 q -0.0233,0 -0.0402,-0.0169 -0.0169,-0.0169 -0.0169,-0.0402 v -0.45086 l -0.48895,-0.89958 q -0.008,-0.0148 -0.008,-0.0275 0,-0.0191 0.0127,-0.0318 0.0148,-0.0148 0.0339,-0.0148 h 0.28999 q 0.036,0 0.0571,0.019 0.0233,0.0169 0.0318,0.0339 l 0.2667,0.5207 0.26881,-0.5207 q 0.008,-0.0169 0.0296,-0.0339 0.0233,-0.019 0.0593,-0.019 h 0.28999 q 0.0191,0 0.0318,0.0148 0.0148,0.0127 0.0148,0.0318 0,0.0127 -0.008,0.0275 l -0.48895,0.89958 z m 2.30082,-1.02871 q 0,0.019 -0.0148,0.0339 -0.0127,0.0127 -0.0296,0.0127 h -0.27729 q -0.0296,0 -0.0466,-0.006 -0.0169,-0.008 -0.0381,-0.0275 -0.004,-0.004 -0.0275,-0.0275 -0.0233,-0.0254 -0.0741,-0.0445 -0.0487,-0.019 -0.1143,-0.019 -0.091,0 -0.15029,0.0254 -0.0572,0.0233 -0.0572,0.0825 0,0.0423 0.036,0.0677 0.036,0.0233 0.11006,0.0423 0.0762,0.019 0.26247,0.0572 0.23918,0.0487 0.35137,0.1524 0.11218,0.10372 0.11218,0.29634 0,0.1397 -0.0847,0.24553 -0.0825,0.10372 -0.23283,0.16087 -0.14817,0.055 -0.33655,0.055 -0.18203,0 -0.3302,-0.0635 -0.14817,-0.0635 -0.23283,-0.1651 -0.0847,-0.1016 -0.0889,-0.20955 0,-0.019 0.0127,-0.0317 0.0148,-0.0148 0.0318,-0.0148 h 0.27728 q 0.0466,0 0.0804,0.0296 0.006,0.006 0.0339,0.0381 0.0275,0.0296 0.0825,0.055 0.0572,0.0233 0.13335,0.0233 0.26247,0 0.26247,-0.11218 0,-0.036 -0.0381,-0.0593 -0.036,-0.0254 -0.10372,-0.0423 -0.0677,-0.0169 -0.2159,-0.0487 l -0.0952,-0.019 q -0.2159,-0.0466 -0.3175,-0.15452 -0.1016,-0.11007 -0.1016,-0.2921 0,-0.12277 0.0741,-0.22648 0.0741,-0.10584 0.20955,-0.16722 0.13759,-0.0635 0.31539,-0.0635 0.17145,0 0.31326,0.0656 0.14182,0.0635 0.22225,0.16086 0.0825,0.0974 0.0868,0.1905 z m 1.46897,-0.39581 q 0.0233,0 0.0402,0.0169 0.0169,0.0169 0.0169,0.0402 v 0.84455 q 0,0.1905 -0.0804,0.32596 -0.0804,0.13547 -0.22648,0.20532 -0.14394,0.0699 -0.33655,0.0699 -0.19474,0 -0.34079,-0.0699 -0.14393,-0.0699 -0.22436,-0.20532 -0.0783,-0.13546 -0.0783,-0.32596 v -0.84455 q 0,-0.0233 0.0169,-0.0402 0.0169,-0.0169 0.0402,-0.0169 h 0.27728 q 0.0233,0 0.0402,0.0169 0.0169,0.0169 0.0169,0.0402 v 0.83608 q 0,0.12912 0.0635,0.20108 0.0656,0.0699 0.18839,0.0699 0.12276,0 0.18626,-0.0699 0.0656,-0.072 0.0656,-0.20108 v -0.83608 q 0,-0.0233 0.0169,-0.0402 0.0169,-0.0169 0.0402,-0.0169 z m 1.00118,0 q 0.27517,0 0.42968,0.127 0.15664,0.12488 0.15664,0.3683 0,0.24341 -0.15664,0.37041 -0.15451,0.127 -0.42968,0.127 h -0.27094 v 0.43181 q 0,0.0233 -0.0169,0.0402 -0.0169,0.0169 -0.0402,0.0169 h -0.27728 q -0.0233,0 -0.0402,-0.0169 -0.0169,-0.0169 -0.0169,-0.0402 v -1.36737 q 0,-0.0233 0.0169,-0.0402 0.0169,-0.0169 0.0402,-0.0169 z m -0.0106,0.66251 q 0.0931,0 0.14817,-0.0402 0.0571,-0.0423 0.0571,-0.127 0,-0.0847 -0.0571,-0.12489 -0.055,-0.0423 -0.14817,-0.0423 h -0.26035 v 0.33443 z m 1.19169,0.24342 h 0.60537 q 0.0233,0 0.0402,-0.0169 0.0169,-0.0169 0.0169,-0.0402 v -0.22437 q 0,-0.0233 -0.0169,-0.0402 -0.0169,-0.0169 -0.0402,-0.0169 h -0.60537 v -0.2286 h 0.65194 q 0.0233,0 0.0402,-0.0169 0.0169,-0.0169 0.0169,-0.0402 v -0.22436 q 0,-0.0233 -0.0169,-0.0402 -0.0169,-0.0169 -0.0402,-0.0169 h -0.98637 q -0.0233,0 -0.0402,0.0169 -0.0169,0.0169 -0.0169,0.0402 v 1.36737 q 0,0.0233 0.0169,0.0402 0.0169,0.0169 0.0402,0.0169 h 1.0033 q 0.0233,0 0.0402,-0.0169 0.0169,-0.0169 0.0169,-0.0402 v -0.22437 q 0,-0.0233 -0.0169,-0.0402 -0.0169,-0.0169 -0.0402,-0.0169 h -0.66887 z m 1.55152,-0.90593 q 0.28363,0 0.44027,0.12276 0.15663,0.12065 0.15663,0.36195 0,0.30692 -0.25188,0.42334 l 0.26246,0.50377 q 0.006,0.0127 0.006,0.0233 0,0.0191 -0.0148,0.0339 -0.0127,0.0127 -0.0317,0.0127 h -0.28787 q -0.0381,0 -0.0571,-0.0148 -0.0191,-0.0169 -0.0318,-0.0423 l -0.23495,-0.45297 h -0.19473 v 0.45297 q 0,0.0233 -0.0169,0.0402 -0.0169,0.0169 -0.0402,0.0169 h -0.27729 q -0.0233,0 -0.0402,-0.0169 -0.0169,-0.0169 -0.0169,-0.0402 v -1.36737 q 0,-0.0233 0.0169,-0.0402 0.0169,-0.0169 0.0402,-0.0169 z m 0,0.64135 q 0.20532,0 0.20532,-0.15664 0,-0.15663 -0.20532,-0.15663 h -0.23918 v 0.31327 z m 1.28905,0.84032 q -0.0825,0 -0.11218,-0.0847 l -0.4318,-1.32292 q -0.006,-0.019 -0.006,-0.0275 0,-0.0191 0.0127,-0.0318 0.0148,-0.0148 0.0339,-0.0148 h 0.2667 q 0.036,0 0.055,0.0169 0.0212,0.0148 0.0275,0.036 l 0.29422,0.93134 0.29422,-0.93134 q 0.006,-0.0212 0.0254,-0.036 0.0212,-0.0169 0.0571,-0.0169 h 0.2667 q 0.0191,0 0.0318,0.0148 0.0148,0.0127 0.0148,0.0318 0,0.008 -0.006,0.0275 l -0.4318,1.32292 q -0.0296,0.0847 -0.11219,0.0847 z m 1.08162,0 q -0.0233,0 -0.0402,-0.0169 -0.0169,-0.0169 -0.0169,-0.0402 v -1.36737 q 0,-0.0233 0.0169,-0.0402 0.0169,-0.0169 0.0402,-0.0169 h 0.27728 q 0.0233,0 0.0402,0.0169 0.0169,0.0169 0.0169,0.0402 v 1.36737 q 0,0.0233 -0.0169,0.0402 -0.0169,0.0169 -0.0402,0.0169 z m 1.8034,-1.08586 q 0,0.019 -0.0148,0.0339 -0.0127,0.0127 -0.0296,0.0127 h -0.27728 q -0.0296,0 -0.0466,-0.006 -0.0169,-0.008 -0.0381,-0.0275 -0.004,-0.004 -0.0275,-0.0275 -0.0233,-0.0254 -0.0741,-0.0445 -0.0487,-0.019 -0.1143,-0.019 -0.091,0 -0.15028,0.0254 -0.0571,0.0233 -0.0571,0.0825 0,0.0423 0.036,0.0677 0.036,0.0233 0.11007,0.0423 0.0762,0.019 0.26246,0.0572 0.23919,0.0487 0.35137,0.1524 0.11219,0.10372 0.11219,0.29634 0,0.1397 -0.0847,0.24553 -0.0826,0.10372 -0.23284,0.16087 -0.14816,0.055 -0.33655,0.055 -0.18203,0 -0.3302,-0.0635 -0.14816,-0.0635 -0.23283,-0.1651 -0.0847,-0.1016 -0.0889,-0.20955 0,-0.019 0.0127,-0.0317 0.0148,-0.0148 0.0318,-0.0148 h 0.27728 q 0.0466,0 0.0804,0.0296 0.006,0.006 0.0339,0.0381 0.0275,0.0296 0.0825,0.055 0.0571,0.0233 0.13335,0.0233 0.26247,0 0.26247,-0.11218 0,-0.036 -0.0381,-0.0593 -0.036,-0.0254 -0.10372,-0.0423 -0.0677,-0.0169 -0.2159,-0.0487 l -0.0953,-0.019 q -0.2159,-0.0466 -0.3175,-0.15452 -0.1016,-0.11007 -0.1016,-0.2921 0,-0.12277 0.0741,-0.22648 0.0741,-0.10584 0.20955,-0.16722 0.13758,-0.0635 0.31538,-0.0635 0.17145,0 0.31327,0.0656 0.14181,0.0635 0.22225,0.16086 0.0826,0.0974 0.0868,0.1905 z m 0.86572,-0.41698 q 0.20108,0 0.34713,0.0762 0.14605,0.0762 0.22437,0.20743 0.0804,0.12912 0.0889,0.28999 0.004,0.0593 0.004,0.1905 0,0.12911 -0.004,0.18626 -0.008,0.16087 -0.0889,0.2921 -0.0783,0.12912 -0.22437,0.20532 -0.14605,0.0762 -0.34713,0.0762 -0.20108,0 -0.34713,-0.0762 -0.14605,-0.0762 -0.22649,-0.20532 -0.0783,-0.13123 -0.0868,-0.2921 -0.004,-0.1143 -0.004,-0.18626 0,-0.072 0.004,-0.1905 0.008,-0.16087 0.0868,-0.28999 0.0804,-0.13123 0.22649,-0.20743 0.14605,-0.0762 0.34713,-0.0762 z m 0.26882,0.5842 q -0.0106,-0.11218 -0.0783,-0.1778 -0.0656,-0.0677 -0.1905,-0.0677 -0.12488,0 -0.19262,0.0677 -0.0656,0.0656 -0.0762,0.1778 -0.006,0.0699 -0.006,0.17568 0,0.10372 0.006,0.17992 0.0106,0.11218 0.0762,0.17992 0.0677,0.0656 0.19262,0.0656 0.12488,0 0.1905,-0.0656 0.0677,-0.0677 0.0783,-0.17992 0.006,-0.0762 0.006,-0.17992 0,-0.10583 -0.006,-0.17568 z m 1.27,-0.56303 q 0.28363,0 0.44027,0.12276 0.15663,0.12065 0.15663,0.36195 0,0.30692 -0.25188,0.42334 l 0.26246,0.50377 q 0.006,0.0127 0.006,0.0233 0,0.0191 -0.0148,0.0339 -0.0127,0.0127 -0.0318,0.0127 h -0.28787 q -0.0381,0 -0.0572,-0.0148 -0.019,-0.0169 -0.0318,-0.0423 l -0.23495,-0.45297 h -0.19473 v 0.45297 q 0,0.0233 -0.0169,0.0402 -0.0169,0.0169 -0.0402,0.0169 h -0.27729 q -0.0233,0 -0.0402,-0.0169 -0.0169,-0.0169 -0.0169,-0.0402 v -1.36737 q 0,-0.0233 0.0169,-0.0402 0.0169,-0.0169 0.0402,-0.0169 z m 0,0.64135 q 0.20532,0 0.20532,-0.15664 0,-0.15663 -0.20532,-0.15663 h -0.23918 v 0.31327 z m 0.80645,1.17687 q -0.0233,0 -0.0402,-0.0169 -0.0169,-0.0169 -0.0169,-0.0402 v -0.21379 q 0,-0.0233 0.0169,-0.0402 0.0169,-0.0148 0.0402,-0.0169 0.16087,-0.0148 0.22225,-0.18627 0.0635,-0.17145 0.0635,-0.47625 0,-0.3048 -0.0635,-0.47413 -0.0614,-0.17145 -0.22225,-0.18627 -0.0233,-0.002 -0.0402,-0.0169 -0.0169,-0.0169 -0.0169,-0.0402 v -0.21378 q 0,-0.0233 0.0169,-0.0402 0.0169,-0.0169 0.0402,-0.0169 0.32597,0 0.4953,0.24553 0.17145,0.24342 0.17145,0.74295 0,0.49954 -0.17145,0.74507 -0.16933,0.24554 -0.4953,0.24554 z"
         id="path36" /></g><path
       d="m 51.431451,184.9593 q 0,0.019 -0.01482,0.0339 -0.0127,0.0127 -0.02963,0.0127 h -0.277284 q -0.02963,0 -0.04657,-0.006 -0.01693,-0.008 -0.0381,-0.0275 -0.0042,-0.004 -0.02752,-0.0275 -0.02328,-0.0254 -0.07408,-0.0445 -0.04868,-0.019 -0.1143,-0.019 -0.09102,0 -0.150284,0.0254 -0.05715,0.0233 -0.05715,0.0825 0,0.0423 0.03598,0.0677 0.03598,0.0233 0.110066,0.0423 0.0762,0.0191 0.262467,0.0572 0.239184,0.0487 0.351368,0.1524 0.112183,0.10372 0.112183,0.29633 0,0.1397 -0.08467,0.24554 -0.08255,0.10371 -0.232833,0.16086 -0.148167,0.055 -0.336551,0.055 -0.182033,0 -0.3302,-0.0635 -0.148167,-0.0635 -0.232834,-0.1651 -0.08467,-0.1016 -0.0889,-0.20955 0,-0.0191 0.0127,-0.0318 0.01482,-0.0148 0.03175,-0.0148 h 0.277284 q 0.04657,0 0.08043,0.0296 0.0063,0.006 0.03387,0.0381 0.02752,0.0296 0.08255,0.055 0.05715,0.0233 0.13335,0.0233 0.262467,0 0.262467,-0.11218 0,-0.036 -0.0381,-0.0593 -0.03598,-0.0254 -0.103717,-0.0423 -0.06773,-0.0169 -0.2159,-0.0487 l -0.09525,-0.019 q -0.2159,-0.0466 -0.317501,-0.15451 -0.1016,-0.11007 -0.1016,-0.2921 0,-0.12277 0.07408,-0.22649 0.07408,-0.10583 0.20955,-0.16721 0.137584,-0.0635 0.315384,-0.0635 0.17145,0 0.313267,0.0656 0.141817,0.0635 0.22225,0.16087 0.08255,0.0974 0.08678,0.1905 z m 1.193802,-0.39582 q 0.02328,0 0.04022,0.0169 0.01693,0.0169 0.01693,0.0402 v 0.22437 q 0,0.0233 -0.01693,0.0402 -0.01693,0.0169 -0.04022,0.0169 h -0.372534 v 1.08585 q 0,0.0233 -0.01693,0.0402 -0.01693,0.0169 -0.04022,0.0169 h -0.277284 q -0.02328,0 -0.04022,-0.0169 -0.01693,-0.0169 -0.01693,-0.0402 v -1.08585 h -0.372534 q -0.02328,0 -0.04022,-0.0169 -0.01693,-0.0169 -0.01693,-0.0402 v -0.22437 q 0,-0.0233 0.01693,-0.0402 0.01693,-0.0169 0.04022,-0.0169 z m 1.587503,1.40335 q 0.0085,0.0212 0.0085,0.0318 0,0.019 -0.01482,0.0339 -0.0127,0.0127 -0.03175,0.0127 h -0.2667 q -0.03598,0 -0.05715,-0.0148 -0.01905,-0.0169 -0.0254,-0.0381 l -0.05927,-0.17568 h -0.563034 l -0.05927,0.17568 q -0.0064,0.0212 -0.02752,0.0381 -0.01905,0.0148 -0.05503,0.0148 h -0.266701 q -0.01905,0 -0.03387,-0.0127 -0.0127,-0.0148 -0.0127,-0.0339 0,-0.0106 0.0085,-0.0318 l 0.461434,-1.3335 q 0.01058,-0.0296 0.03387,-0.0487 0.02328,-0.0212 0.06138,-0.0212 h 0.342901 q 0.0381,0 0.06138,0.0212 0.02328,0.019 0.03387,0.0487 z m -0.556684,-0.47836 -0.17145,-0.508 -0.171451,0.508 z m 1.354669,-0.92499 q 0.283634,0 0.440267,0.12277 0.156634,0.12065 0.156634,0.36195 0,0.30692 -0.251884,0.42333 l 0.262467,0.50377 q 0.0063,0.0127 0.0063,0.0233 0,0.019 -0.01482,0.0339 -0.0127,0.0127 -0.03175,0.0127 h -0.287867 q -0.0381,0 -0.05715,-0.0148 -0.01905,-0.0169 -0.03175,-0.0423 l -0.23495,-0.45297 h -0.194734 v 0.45297 q 0,0.0233 -0.01693,0.0402 -0.01693,0.0169 -0.04022,0.0169 H 54.43707 q -0.02328,0 -0.04022,-0.0169 -0.01693,-0.0169 -0.01693,-0.0402 v -1.36737 q 0,-0.0233 0.01693,-0.0402 0.01693,-0.0169 0.04022,-0.0169 z m 0,0.64135 q 0.205317,0 0.205317,-0.15663 0,-0.15663 -0.205317,-0.15663 h -0.239184 v 0.31326 z m 1.877485,-0.64135 q 0.02328,0 0.04022,0.0169 0.01693,0.0169 0.01693,0.0402 v 0.22437 q 0,0.0233 -0.01693,0.0402 -0.01693,0.0169 -0.04022,0.0169 h -0.372534 v 1.08585 q 0,0.0233 -0.01693,0.0402 -0.01693,0.0169 -0.04022,0.0169 h -0.277284 q -0.02328,0 -0.04022,-0.0169 -0.01693,-0.0169 -0.01693,-0.0402 v -1.08585 h -0.372534 q -0.02328,0 -0.04022,-0.0169 -0.01693,-0.0169 -0.01693,-0.0402 v -0.22437 q 0,-0.0233 0.01693,-0.0402 0.01693,-0.0169 0.04022,-0.0169 z m 1.358903,0 q 0.275167,0 0.429684,0.127 0.156633,0.12489 0.156633,0.3683 0,0.24342 -0.156633,0.37042 -0.154517,0.127 -0.429684,0.127 h -0.270934 v 0.4318 q 0,0.0233 -0.01693,0.0402 -0.01693,0.0169 -0.04022,0.0169 h -0.277284 q -0.02328,0 -0.04022,-0.0169 -0.01693,-0.0169 -0.01693,-0.0402 v -1.36737 q 0,-0.0233 0.01693,-0.0402 0.01693,-0.0169 0.04022,-0.0169 z m -0.01058,0.66252 q 0.09313,0 0.148166,-0.0402 0.05715,-0.0423 0.05715,-0.127 0,-0.0847 -0.05715,-0.12488 -0.05503,-0.0423 -0.148166,-0.0423 h -0.260351 v 0.33443 z m 1.41182,-0.68368 q 0.201083,0 0.347133,0.0762 0.146051,0.0762 0.224368,0.20743 0.08043,0.12912 0.0889,0.28998 0.0042,0.0593 0.0042,0.1905 0,0.12912 -0.0042,0.18627 -0.0085,0.16087 -0.0889,0.2921 -0.07832,0.12912 -0.224368,0.20532 -0.14605,0.0762 -0.347133,0.0762 -0.201084,0 -0.347134,-0.0762 -0.14605,-0.0762 -0.226484,-0.20532 -0.07832,-0.13123 -0.08678,-0.2921 -0.0042,-0.1143 -0.0042,-0.18627 0,-0.072 0.0042,-0.1905 0.0085,-0.16086 0.08678,-0.28998 0.08043,-0.13123 0.226484,-0.20743 0.14605,-0.0762 0.347134,-0.0762 z m 0.268817,0.5842 q -0.01058,-0.11219 -0.07832,-0.1778 -0.06562,-0.0677 -0.1905,-0.0677 -0.124884,0 -0.192617,0.0677 -0.06562,0.0656 -0.0762,0.1778 -0.0063,0.0699 -0.0063,0.17568 0,0.10372 0.0063,0.17992 0.01058,0.11218 0.0762,0.17991 0.06773,0.0656 0.192617,0.0656 0.124883,0 0.1905,-0.0656 0.06773,-0.0677 0.07832,-0.17991 0.0063,-0.0762 0.0063,-0.17992 0,-0.10583 -0.0063,-0.17568 z m 0.696386,0.91863 q -0.02328,0 -0.04022,-0.0169 -0.01693,-0.0169 -0.01693,-0.0402 v -1.36737 q 0,-0.0233 0.01693,-0.0402 0.01693,-0.0169 0.04022,-0.0169 h 0.277283 q 0.02328,0 0.04022,0.0169 0.01693,0.0169 0.01693,0.0402 v 1.36737 q 0,0.0233 -0.01693,0.0402 -0.01693,0.0169 -0.04022,0.0169 z m 1.593853,0 q -0.03175,0 -0.05503,-0.0148 -0.02328,-0.0169 -0.03175,-0.0339 l -0.484718,-0.7239 v 0.71543 q 0,0.0233 -0.01693,0.0402 -0.01693,0.0169 -0.04022,0.0169 h -0.277284 q -0.02328,0 -0.04022,-0.0169 -0.01693,-0.0169 -0.01693,-0.0402 v -1.36737 q 0,-0.0233 0.01693,-0.0402 0.01693,-0.0169 0.04022,-0.0169 h 0.220134 q 0.03175,0 0.05503,0.0169 0.02328,0.0148 0.03175,0.0317 l 0.484717,0.7239 v -0.71544 q 0,-0.0233 0.01693,-0.0402 0.01693,-0.0169 0.04022,-0.0169 h 0.277284 q 0.02328,0 0.04022,0.0169 0.01693,0.0169 0.01693,0.0402 v 1.36737 q 0,0.0233 -0.01693,0.0402 -0.01693,0.0169 -0.04022,0.0169 z m 1.661586,-1.48167 q 0.02328,0 0.04022,0.0169 0.01693,0.0169 0.01693,0.0402 v 0.22437 q 0,0.0233 -0.01693,0.0402 -0.01693,0.0169 -0.04022,0.0169 h -0.372534 v 1.08585 q 0,0.0233 -0.01693,0.0402 -0.01693,0.0169 -0.04022,0.0169 H 63.16204 q -0.02328,0 -0.04022,-0.0169 -0.01693,-0.0169 -0.01693,-0.0402 v -1.08585 h -0.372534 q -0.02328,0 -0.04022,-0.0169 -0.01693,-0.0169 -0.01693,-0.0402 v -0.22437 q 0,-0.0233 0.01693,-0.0402 0.01693,-0.0169 0.04022,-0.0169 z"
       id="text31"
       style="font-weight:bold;font-size:2.11667px;line-height:1;font-family:Rubik;-inkscape-font-specification:'Rubik Bold';fill:#00cc00;fill-opacity:1;stroke-width:0.25;stroke-linecap:round;stroke-linejoin:round;paint-order:markers stroke fill"
       aria-label="START POINT" /><path
       style="font-weight:bold;font-size:2.11667px;line-height:1;font-family:Rubik;-inkscape-font-specification:'Rubik Bold';text-align:end;text-anchor:end;fill:#00cc00;fill-opacity:1;stroke-width:0.25;stroke-linecap:round;stroke-linejoin:round;paint-order:markers stroke fill"
       d="m 188.52844,184.56348 q 0.0233,0 0.0402,0.0169 0.0169,0.0169 0.0169,0.0402 v 0.22437 q 0,0.0233 -0.0169,0.0402 -0.0169,0.0169 -0.0402,0.0169 h -0.37253 v 1.08585 q 0,0.0233 -0.0169,0.0402 -0.0169,0.0169 -0.0402,0.0169 h -0.27728 q -0.0233,0 -0.0402,-0.0169 -0.0169,-0.0169 -0.0169,-0.0402 v -1.08585 h -0.37253 q -0.0233,0 -0.0402,-0.0169 -0.0169,-0.0169 -0.0169,-0.0402 v -0.22437 q 0,-0.0233 0.0169,-0.0402 0.0169,-0.0169 0.0402,-0.0169 z m 1.5875,1.40335 q 0.008,0.0212 0.008,0.0318 0,0.019 -0.0148,0.0339 -0.0127,0.0127 -0.0317,0.0127 h -0.2667 q -0.036,0 -0.0572,-0.0148 -0.019,-0.0169 -0.0254,-0.0381 l -0.0593,-0.17568 h -0.56304 l -0.0593,0.17568 q -0.006,0.0212 -0.0275,0.0381 -0.019,0.0148 -0.055,0.0148 h -0.2667 q -0.019,0 -0.0339,-0.0127 -0.0127,-0.0148 -0.0127,-0.0339 0,-0.0106 0.008,-0.0318 l 0.46144,-1.3335 q 0.0106,-0.0296 0.0339,-0.0487 0.0233,-0.0212 0.0614,-0.0212 h 0.3429 q 0.0381,0 0.0614,0.0212 0.0233,0.019 0.0339,0.0487 z m -0.55668,-0.47836 -0.17145,-0.508 -0.17145,0.508 z m 1.36737,-0.92499 q 0.28363,0 0.44027,0.12277 0.15663,0.12065 0.15663,0.36195 0,0.30692 -0.25188,0.42333 l 0.26246,0.50377 q 0.006,0.0127 0.006,0.0233 0,0.019 -0.0148,0.0339 -0.0127,0.0127 -0.0318,0.0127 h -0.28787 q -0.0381,0 -0.0572,-0.0148 -0.019,-0.0169 -0.0317,-0.0423 l -0.23495,-0.45297 h -0.19474 v 0.45297 q 0,0.0233 -0.0169,0.0402 -0.0169,0.0169 -0.0402,0.0169 h -0.27728 q -0.0233,0 -0.0402,-0.0169 -0.0169,-0.0169 -0.0169,-0.0402 v -1.36737 q 0,-0.0233 0.0169,-0.0402 0.0169,-0.0169 0.0402,-0.0169 z m 0,0.64135 q 0.20531,0 0.20531,-0.15663 0,-0.15663 -0.20531,-0.15663 h -0.23919 v 0.31326 z m 1.1811,-0.0783 q -0.006,0.0508 -0.006,0.16298 0,0.13123 0.006,0.19262 0.008,0.10795 0.072,0.1778 0.0635,0.0677 0.19473,0.0677 0.12065,0 0.19262,-0.055 0.0741,-0.0572 0.0741,-0.1778 h -0.1778 q -0.0233,0 -0.0402,-0.0169 -0.0169,-0.0169 -0.0169,-0.0402 v -0.22437 q 0,-0.0233 0.0169,-0.0402 0.0169,-0.0169 0.0402,-0.0169 h 0.51223 q 0.0233,0 0.0402,0.0169 0.0169,0.0169 0.0169,0.0402 v 0.27093 q 0,0.17569 -0.0868,0.30904 -0.0868,0.13123 -0.23707,0.2032 -0.14816,0.0699 -0.33443,0.0699 -0.19685,0 -0.3429,-0.0762 -0.14605,-0.0783 -0.22648,-0.20744 -0.0804,-0.13123 -0.0889,-0.28998 -0.004,-0.1016 -0.004,-0.16722 0,-0.0783 0.004,-0.20955 0.006,-0.15875 0.0868,-0.28786 0.0804,-0.13124 0.22648,-0.20744 0.14817,-0.0783 0.34502,-0.0783 0.18838,0 0.33232,0.0699 0.14605,0.0699 0.22648,0.17568 0.0825,0.10583 0.0889,0.20532 0.002,0.0191 -0.0127,0.0339 -0.0148,0.0127 -0.0339,0.0127 h -0.28151 q -0.0275,0 -0.0445,-0.0127 -0.0148,-0.0148 -0.0402,-0.0444 -0.0381,-0.0466 -0.091,-0.0741 -0.0508,-0.0275 -0.14393,-0.0275 -0.23918,0 -0.2667,0.24554 z m 1.55575,0.3429 h 0.60537 q 0.0233,0 0.0402,-0.0169 0.0169,-0.0169 0.0169,-0.0402 v -0.22437 q 0,-0.0233 -0.0169,-0.0402 -0.0169,-0.0169 -0.0402,-0.0169 h -0.60537 v -0.2286 h 0.65194 q 0.0233,0 0.0402,-0.0169 0.0169,-0.0169 0.0169,-0.0402 v -0.22437 q 0,-0.0233 -0.0169,-0.0402 -0.0169,-0.0169 -0.0402,-0.0169 h -0.98637 q -0.0233,0 -0.0402,0.0169 -0.0169,0.0169 -0.0169,0.0402 v 1.36737 q 0,0.0233 0.0169,0.0402 0.0169,0.0169 0.0402,0.0169 h 1.0033 q 0.0233,0 0.0402,-0.0169 0.0169,-0.0169 0.0169,-0.0402 v -0.22437 q 0,-0.0233 -0.0169,-0.0402 -0.0169,-0.0169 -0.0402,-0.0169 h -0.66887 z m 2.0066,-0.90594 q 0.0233,0 0.0402,0.0169 0.0169,0.0169 0.0169,0.0402 v 0.22437 q 0,0.0233 -0.0169,0.0402 -0.0169,0.0169 -0.0402,0.0169 h -0.37253 v 1.08585 q 0,0.0233 -0.0169,0.0402 -0.0169,0.0169 -0.0402,0.0169 h -0.27728 q -0.0233,0 -0.0402,-0.0169 -0.0169,-0.0169 -0.0169,-0.0402 v -1.08585 h -0.37254 q -0.0233,0 -0.0402,-0.0169 -0.0169,-0.0169 -0.0169,-0.0402 v -0.22437 q 0,-0.0233 0.0169,-0.0402 0.0169,-0.0169 0.0402,-0.0169 z m 1.35891,0 q 0.27516,0 0.42968,0.127 0.15664,0.12489 0.15664,0.3683 0,0.24342 -0.15664,0.37042 -0.15452,0.127 -0.42968,0.127 h -0.27094 v 0.4318 q 0,0.0233 -0.0169,0.0402 -0.0169,0.0169 -0.0402,0.0169 h -0.27728 q -0.0233,0 -0.0402,-0.0169 -0.0169,-0.0169 -0.0169,-0.0402 v -1.36737 q 0,-0.0233 0.0169,-0.0402 0.0169,-0.0169 0.0402,-0.0169 z m -0.0106,0.66252 q 0.0931,0 0.14817,-0.0402 0.0571,-0.0423 0.0571,-0.127 0,-0.0847 -0.0571,-0.12488 -0.055,-0.0423 -0.14817,-0.0423 h -0.26035 v 0.33443 z m 1.41182,-0.68368 q 0.20109,0 0.34714,0.0762 0.14605,0.0762 0.22437,0.20743 0.0804,0.12912 0.0889,0.28998 0.004,0.0593 0.004,0.1905 0,0.12912 -0.004,0.18627 -0.008,0.16087 -0.0889,0.2921 -0.0783,0.12912 -0.22437,0.20532 -0.14605,0.0762 -0.34714,0.0762 -0.20108,0 -0.34713,-0.0762 -0.14605,-0.0762 -0.22648,-0.20532 -0.0783,-0.13123 -0.0868,-0.2921 -0.004,-0.1143 -0.004,-0.18627 0,-0.072 0.004,-0.1905 0.008,-0.16086 0.0868,-0.28998 0.0804,-0.13123 0.22648,-0.20743 0.14605,-0.0762 0.34713,-0.0762 z m 0.26882,0.5842 q -0.0106,-0.11219 -0.0783,-0.1778 -0.0656,-0.0677 -0.1905,-0.0677 -0.12488,0 -0.19261,0.0677 -0.0656,0.0656 -0.0762,0.1778 -0.006,0.0699 -0.006,0.17568 0,0.10372 0.006,0.17992 0.0106,0.11218 0.0762,0.17991 0.0677,0.0656 0.19261,0.0656 0.12489,0 0.1905,-0.0656 0.0677,-0.0677 0.0783,-0.17991 0.006,-0.0762 0.006,-0.17992 0,-0.10583 -0.006,-0.17568 z m 0.69639,0.91863 q -0.0233,0 -0.0402,-0.0169 -0.0169,-0.0169 -0.0169,-0.0402 v -1.36737 q 0,-0.0233 0.0169,-0.0402 0.0169,-0.0169 0.0402,-0.0169 h 0.27728 q 0.0233,0 0.0402,0.0169 0.0169,0.0169 0.0169,0.0402 v 1.36737 q 0,0.0233 -0.0169,0.0402 -0.0169,0.0169 -0.0402,0.0169 z m 1.59385,0 q -0.0318,0 -0.055,-0.0148 -0.0233,-0.0169 -0.0317,-0.0339 l -0.48472,-0.7239 v 0.71543 q 0,0.0233 -0.0169,0.0402 -0.0169,0.0169 -0.0402,0.0169 h -0.27728 q -0.0233,0 -0.0402,-0.0169 -0.0169,-0.0169 -0.0169,-0.0402 v -1.36737 q 0,-0.0233 0.0169,-0.0402 0.0169,-0.0169 0.0402,-0.0169 h 0.22013 q 0.0317,0 0.055,0.0169 0.0233,0.0148 0.0318,0.0317 l 0.48472,0.7239 v -0.71544 q 0,-0.0233 0.0169,-0.0402 0.0169,-0.0169 0.0402,-0.0169 h 0.27728 q 0.0233,0 0.0402,0.0169 0.0169,0.0169 0.0169,0.0402 v 1.36737 q 0,0.0233 -0.0169,0.0402 -0.0169,0.0169 -0.0402,0.0169 z m 1.66159,-1.48167 q 0.0233,0 0.0402,0.0169 0.0169,0.0169 0.0169,0.0402 v 0.22437 q 0,0.0233 -0.0169,0.0402 -0.0169,0.0169 -0.0402,0.0169 h -0.37254 v 1.08585 q 0,0.0233 -0.0169,0.0402 -0.0169,0.0169 -0.0402,0.0169 h -0.27728 q -0.0233,0 -0.0402,-0.0169 -0.0169,-0.0169 -0.0169,-0.0402 v -1.08585 h -0.37254 q -0.0233,0 -0.0402,-0.0169 -0.0169,-0.0169 -0.0169,-0.0402 v -0.22437 q 0,-0.0233 0.0169,-0.0402 0.0169,-0.0169 0.0402,-0.0169 z"
       id="text33"
       aria-label="TARGET POINT" /><path
       style="fill:none;fill-opacity:1;stroke:#ff00ff;stroke-width:0.25;stroke-linecap:round;stroke-linejoin:round;stroke-dasharray:none;stroke-dashoffset:0;stroke-opacity:1;paint-order:markers stroke fill"
       d="m 130.91771,159.75081 h 1.75047 v 29.99988 h -1.75047"
       id="path38" /><text
       xml:space="preserve"
       style="font-weight:bold;font-size:2.11667px;line-height:1;font-family:Rubik;-inkscape-font-specification:'Rubik Bold';text-align:end;writing-mode:lr-tb;direction:ltr;text-anchor:end;fill:#ff00ff;fill-opacity:1;stroke:none;stroke-width:0.25;stroke-linecap:round;stroke-linejoin:round;stroke-dasharray:none;stroke-dashoffset:0;stroke-opacity:1;paint-order:markers stroke fill"
       x="136.36807"
       y="175.49158"
       id="text38"><tspan
         id="tspan38"
         style="stroke:none;stroke-width:0.25"
         x="136.36807"
         y="175.49158">1m</tspan></text><text
       xml:space="preserve"
       style="font-weight:bold;font-size:2.11667px;line-height:1;font-family:Rubik;-inkscape-font-specification:'Rubik Bold';text-align:end;writing-mode:lr-tb;direction:ltr;text-anchor:end;fill:#ff00ff;fill-opacity:1;stroke:none;stroke-width:0.25;stroke-linecap:round;stroke-linejoin:round;stroke-dasharray:none;stroke-dashoffset:0;stroke-opacity:1;paint-order:markers stroke fill"
       x="126.65604"
       y="198.92024"
       id="text38-5"><tspan
         id="tspan38-5"
         style="text-align:center;text-anchor:middle;stroke:none;stroke-width:0.25"
         x="126.65604"
         y="198.92024">Target Distance</tspan></text><path
       style="fill:none;fill-opacity:1;stroke:#ff00ff;stroke-width:0.25;stroke-linecap:round;stroke-linejoin:round;stroke-dasharray:none;stroke-dashoffset:0;stroke-opacity:1;paint-order:markers stroke fill"
       d="m 201.6678,194.02148 v 1.75046 H 51.417795 v -1.75047"
       id="path39" /><text
       xml:space="preserve"
       style="font-weight:bold;font-size:2.11667px;line-height:1;font-family:Rubik;-inkscape-font-specification:'Rubik Bold';text-align:end;writing-mode:lr-tb;direction:ltr;text-anchor:end;fill:#ff00ff;fill-opacity:1;stroke:none;stroke-width:0.25;stroke-linecap:round;stroke-linejoin:round;stroke-dasharray:none;stroke-dashoffset:0;stroke-opacity:1;paint-order:markers stroke fill"
       x="89.031036"
       y="204.84962"
       id="text40"><tspan
         id="tspan40"
         style="text-align:center;text-anchor:middle;stroke:none;stroke-width:0.25"
         x="89.031036"
         y="204.84962">1/2 Target Distance</tspan></text><path
       style="fill:none;fill-opacity:1;stroke:#ff00ff;stroke-width:0.25;stroke-linecap:round;stroke-linejoin:round;stroke-dasharray:none;stroke-dashoffset:0;stroke-opacity:1;paint-order:markers stroke fill"
       d="m 126.4178,199.95086 v 1.75046 H 51.417794 v -1.75047"
       id="path40" /><path
       style="font-weight:bold;font-size:2.11667px;line-height:1;font-family:Rubik;-inkscape-font-specification:'Rubik Bold';text-align:center;text-anchor:middle;fill:#ff00ff;stroke-width:0.25;stroke-linecap:round;stroke-linejoin:round;paint-order:markers stroke fill"
       d="m 158.47127,159.80893 q 0.0233,0 0.0402,0.0169 0.0169,0.0169 0.0169,0.0402 v 0.22437 q 0,0.0233 -0.0169,0.0402 -0.0169,0.0169 -0.0402,0.0169 h -0.37253 v 1.08585 q 0,0.0233 -0.0169,0.0402 -0.0169,0.0169 -0.0402,0.0169 h -0.27728 q -0.0233,0 -0.0402,-0.0169 -0.0169,-0.0169 -0.0169,-0.0402 v -1.08585 h -0.37254 q -0.0233,0 -0.0402,-0.0169 -0.0169,-0.0169 -0.0169,-0.0402 v -0.22437 q 0,-0.0233 0.0169,-0.0402 0.0169,-0.0169 0.0402,-0.0169 z m 1.58751,1.40336 q 0.008,0.0212 0.008,0.0318 0,0.019 -0.0148,0.0339 -0.0127,0.0127 -0.0317,0.0127 h -0.2667 q -0.036,0 -0.0572,-0.0148 -0.019,-0.0169 -0.0254,-0.0381 l -0.0593,-0.17569 h -0.56303 l -0.0593,0.17569 q -0.006,0.0212 -0.0275,0.0381 -0.0191,0.0148 -0.055,0.0148 h -0.2667 q -0.0191,0 -0.0339,-0.0127 -0.0127,-0.0148 -0.0127,-0.0339 0,-0.0106 0.008,-0.0318 l 0.46143,-1.33351 q 0.0106,-0.0296 0.0339,-0.0487 0.0233,-0.0212 0.0614,-0.0212 h 0.3429 q 0.0381,0 0.0614,0.0212 0.0233,0.0191 0.0339,0.0487 z m -0.55669,-0.47837 -0.17145,-0.508 -0.17145,0.508 z m 1.36737,-0.92499 q 0.28364,0 0.44027,0.12277 0.15663,0.12065 0.15663,0.36195 0,0.30692 -0.25188,0.42334 l 0.26247,0.50376 q 0.006,0.0127 0.006,0.0233 0,0.019 -0.0148,0.0339 -0.0127,0.0127 -0.0317,0.0127 h -0.28787 q -0.0381,0 -0.0572,-0.0148 -0.019,-0.0169 -0.0318,-0.0423 l -0.23495,-0.45296 h -0.19473 v 0.45296 q 0,0.0233 -0.0169,0.0402 -0.0169,0.0169 -0.0402,0.0169 h -0.27728 q -0.0233,0 -0.0402,-0.0169 -0.0169,-0.0169 -0.0169,-0.0402 v -1.36737 q 0,-0.0233 0.0169,-0.0402 0.0169,-0.0169 0.0402,-0.0169 z m 0,0.64136 q 0.20532,0 0.20532,-0.15664 0,-0.15663 -0.20532,-0.15663 h -0.23918 v 0.31327 z m 1.18111,-0.0783 q -0.006,0.0508 -0.006,0.16298 0,0.13124 0.006,0.19262 0.008,0.10795 0.072,0.1778 0.0635,0.0677 0.19474,0.0677 0.12065,0 0.19261,-0.055 0.0741,-0.0572 0.0741,-0.1778 h -0.1778 q -0.0233,0 -0.0402,-0.0169 -0.0169,-0.0169 -0.0169,-0.0402 v -0.22437 q 0,-0.0233 0.0169,-0.0402 0.0169,-0.0169 0.0402,-0.0169 h 0.51223 q 0.0233,0 0.0402,0.0169 0.0169,0.0169 0.0169,0.0402 v 0.27094 q 0,0.17568 -0.0868,0.30903 -0.0868,0.13123 -0.23707,0.2032 -0.14817,0.0699 -0.33443,0.0699 -0.19685,0 -0.34291,-0.0762 -0.14605,-0.0783 -0.22648,-0.20743 -0.0804,-0.13124 -0.0889,-0.28999 -0.004,-0.1016 -0.004,-0.16721 0,-0.0783 0.004,-0.20955 0.006,-0.15875 0.0868,-0.28787 0.0804,-0.13124 0.22649,-0.20744 0.14817,-0.0783 0.34502,-0.0783 0.18838,0 0.33231,0.0699 0.14605,0.0699 0.22649,0.17568 0.0825,0.10584 0.0889,0.20532 0.002,0.019 -0.0127,0.0339 -0.0148,0.0127 -0.0339,0.0127 h -0.28152 q -0.0275,0 -0.0444,-0.0127 -0.0148,-0.0148 -0.0402,-0.0445 -0.0381,-0.0466 -0.091,-0.0741 -0.0508,-0.0275 -0.14393,-0.0275 -0.23919,0 -0.2667,0.24553 z m 1.55575,0.3429 h 0.60537 q 0.0233,0 0.0402,-0.0169 0.0169,-0.0169 0.0169,-0.0402 v -0.22437 q 0,-0.0233 -0.0169,-0.0402 -0.0169,-0.0169 -0.0402,-0.0169 h -0.60537 v -0.2286 h 0.65193 q 0.0233,0 0.0402,-0.0169 0.0169,-0.0169 0.0169,-0.0402 v -0.22437 q 0,-0.0233 -0.0169,-0.0402 -0.0169,-0.0169 -0.0402,-0.0169 h -0.98637 q -0.0233,0 -0.0402,0.0169 -0.0169,0.0169 -0.0169,0.0402 v 1.36737 q 0,0.0233 0.0169,0.0402 0.0169,0.0169 0.0402,0.0169 h 1.00331 q 0.0233,0 0.0402,-0.0169 0.0169,-0.0169 0.0169,-0.0402 v -0.22436 q 0,-0.0233 -0.0169,-0.0402 -0.0169,-0.0169 -0.0402,-0.0169 h -0.66887 z m 2.0066,-0.90594 q 0.0233,0 0.0402,0.0169 0.0169,0.0169 0.0169,0.0402 v 0.22437 q 0,0.0233 -0.0169,0.0402 -0.0169,0.0169 -0.0402,0.0169 h -0.37253 v 1.08585 q 0,0.0233 -0.0169,0.0402 -0.0169,0.0169 -0.0402,0.0169 H 164.906 q -0.0233,0 -0.0402,-0.0169 -0.0169,-0.0169 -0.0169,-0.0402 v -1.08585 h -0.37253 q -0.0233,0 -0.0402,-0.0169 -0.0169,-0.0169 -0.0169,-0.0402 v -0.22437 q 0,-0.0233 0.0169,-0.0402 0.0169,-0.0169 0.0402,-0.0169 z m 1.73355,0 q 0.0233,0 0.0402,0.0169 0.0169,0.0169 0.0169,0.0402 v 0.22437 q 0,0.0233 -0.0169,0.0402 -0.0169,0.0169 -0.0402,0.0169 h -0.37253 v 1.08585 q 0,0.0233 -0.0169,0.0402 -0.0169,0.0169 -0.0402,0.0169 h -0.27728 q -0.0233,0 -0.0402,-0.0169 -0.0169,-0.0169 -0.0169,-0.0402 v -1.08585 h -0.37254 q -0.0233,0 -0.0402,-0.0169 -0.0169,-0.0169 -0.0169,-0.0402 v -0.22437 q 0,-0.0233 0.0169,-0.0402 0.0169,-0.0169 0.0402,-0.0169 z m 0.30481,1.48167 q -0.0233,0 -0.0402,-0.0169 -0.0169,-0.0169 -0.0169,-0.0402 v -1.36737 q 0,-0.0233 0.0169,-0.0402 0.0169,-0.0169 0.0402,-0.0169 h 0.27728 q 0.0233,0 0.0402,0.0169 0.0169,0.0169 0.0169,0.0402 v 1.36737 q 0,0.0233 -0.0169,0.0402 -0.0169,0.0169 -0.0402,0.0169 z m 1.02235,-0.75776 v 0.70061 q 0,0.0233 -0.0169,0.0402 -0.0169,0.0169 -0.0402,0.0169 h -0.27729 q -0.0233,0 -0.0402,-0.0169 -0.0169,-0.0169 -0.0169,-0.0402 v -1.36737 q 0,-0.0233 0.0169,-0.0402 0.0169,-0.0169 0.0402,-0.0169 h 0.24554 q 0.0593,0 0.091,0.0572 l 0.34291,0.58632 0.3429,-0.58632 q 0.0318,-0.0572 0.091,-0.0572 h 0.24554 q 0.0233,0 0.0402,0.0169 0.0169,0.0169 0.0169,0.0402 v 1.36737 q 0,0.0233 -0.0169,0.0402 -0.0169,0.0169 -0.0402,0.0169 h -0.27729 q -0.0233,0 -0.0402,-0.0169 -0.0169,-0.0169 -0.0169,-0.0402 v -0.70061 l -0.19896,0.34925 q -0.0148,0.0233 -0.0339,0.0381 -0.0169,0.0148 -0.0445,0.0148 h -0.13547 q -0.0275,0 -0.0466,-0.0148 -0.0169,-0.0148 -0.0317,-0.0381 z m 1.76953,0.18203 h 0.60537 q 0.0233,0 0.0402,-0.0169 0.0169,-0.0169 0.0169,-0.0402 v -0.22437 q 0,-0.0233 -0.0169,-0.0402 -0.0169,-0.0169 -0.0402,-0.0169 h -0.60537 v -0.2286 h 0.65194 q 0.0233,0 0.0402,-0.0169 0.0169,-0.0169 0.0169,-0.0402 v -0.22437 q 0,-0.0233 -0.0169,-0.0402 -0.0169,-0.0169 -0.0402,-0.0169 h -0.98637 q -0.0233,0 -0.0402,0.0169 -0.0169,0.0169 -0.0169,0.0402 v 1.36737 q 0,0.0233 0.0169,0.0402 0.0169,0.0169 0.0402,0.0169 h 1.0033 q 0.0233,0 0.0402,-0.0169 0.0169,-0.0169 0.0169,-0.0402 v -0.22436 q 0,-0.0233 -0.0169,-0.0402 -0.0169,-0.0169 -0.0402,-0.0169 h -0.66887 z m 1.32927,-0.22225 q 0,0.0233 -0.0169,0.0402 -0.0169,0.0169 -0.0402,0.0169 H 171.438 q -0.0233,0 -0.0402,-0.0169 -0.0169,-0.0169 -0.0169,-0.0402 v -0.27728 q 0,-0.0233 0.0169,-0.0402 0.0169,-0.0169 0.0402,-0.0169 h 0.27728 q 0.0233,0 0.0402,0.0169 0.0169,0.0169 0.0169,0.0402 z m 0,0.74083 q 0,0.0233 -0.0169,0.0402 -0.0169,0.0169 -0.0402,0.0169 H 171.438 q -0.0233,0 -0.0402,-0.0169 -0.0169,-0.0169 -0.0169,-0.0402 v -0.27728 q 0,-0.0233 0.0169,-0.0402 0.0169,-0.0169 0.0402,-0.0169 h 0.27728 q 0.0233,0 0.0402,0.0169 0.0169,0.0169 0.0169,0.0402 z"
       id="text41"
       aria-label="TARGET TIME:" /><text
       xml:space="preserve"
       style="font-weight:bold;font-size:4.23333px;line-height:1;font-family:Rubik;-inkscape-font-specification:'Rubik Bold';text-align:end;writing-mode:lr-tb;direction:ltr;text-anchor:end;fill:#ff00ff;fill-opacity:1;stroke:none;stroke-width:0.25;stroke-linecap:round;stroke-linejoin:round;stroke-dasharray:none;stroke-dashoffset:0;stroke-opacity:1;paint-order:markers stroke fill"
       x="164.63608"
       y="165.99345"
       id="text42"><tspan
         id="tspan42"
         style="font-size:4.23333px;text-align:center;text-anchor:middle;stroke:none;stroke-width:0.25"
         x="164.63608"
         y="165.99345">Target Time</tspan></text></g></svg>
