<?xml version="1.0" encoding="UTF-8" standalone="no"?>
<!-- Created with Inkscape (http://www.inkscape.org/) -->

<svg
   width="62.44199mm"
   height="93.908592mm"
   viewBox="0 0 62.44199 93.908592"
   version="1.1"
   id="svg1"
   xml:space="preserve"
   xmlns="http://www.w3.org/2000/svg"
   xmlns:svg="http://www.w3.org/2000/svg"><defs
     id="defs1" /><g
     id="layer1"
     transform="translate(-339.51072,-172.12011)"><g
       id="g184"
       transform="rotate(15,-214.29975,509.29813)"><path
         style="baseline-shift:baseline;display:inline;overflow:visible;opacity:1;vector-effect:none;fill:#1a9659;stroke-linecap:round;paint-order:markers stroke fill;enable-background:accumulate;stop-color:#000000;stop-opacity:1"
         d="m 254.5957,81.25 c -2.05607,-7.8e-5 -3.74964,1.693923 -3.75,3.75 -7e-5,2.055714 1.69257,3.748985 3.74805,3.75 0.004,6e-6 0.008,6e-6 0.0117,0 H 276.25 v -7.5 z m 0,2.5 H 273.75 v 2.5 h -19.14648 -0.002 c -0.001,2e-6 -0.003,2e-6 -0.004,0 h -0.002 c -0.70521,2.7e-5 -1.25002,-0.544789 -1.25,-1.25 1.3e-4,-0.705097 0.54491,-1.250027 1.25,-1.25 z"
         id="path169" /><path
         style="baseline-shift:baseline;display:inline;overflow:visible;opacity:1;vector-effect:none;fill:#1a9659;stroke-linecap:round;paint-order:markers stroke fill;enable-background:accumulate;stop-color:#000000;stop-opacity:1"
         d="m 252.48828,91.25 c -2.05168,0.0067 -3.73837,1.698305 -3.73828,3.75 -7e-5,2.056372 1.69363,3.750078 3.75,3.75 h 23.75 v -7.5 h -23.69531 -0.0156 -0.0176 -0.0137 -0.006 c -0.003,-5e-6 -0.006,-4e-6 -0.01,0 h -0.002 z m 0.0586,2.5 H 273.75 v 2.5 H 252.5 c -0.70521,2.7e-5 -1.25002,-0.544791 -1.25,-1.25 -3e-5,-0.701183 0.54009,-1.24228 1.24023,-1.248047 0.0183,0.001 0.0365,0.0021 0.0547,0.0039 6.5e-4,6.5e-5 0.001,-6.5e-5 0.002,0 z"
         id="path170" /><path
         style="baseline-shift:baseline;display:inline;overflow:visible;opacity:1;vector-effect:none;fill:#1a9659;stroke-linecap:round;paint-order:markers stroke fill;enable-background:accumulate;stop-color:#000000;stop-opacity:1"
         d="m 254.5957,101.25 c -2.03342,8e-5 -3.71533,1.65629 -3.74804,3.68945 l -0.002,0.01 v 0.0996 l 0.002,0.0117 c 0.0323,2.03345 1.71433,3.68936 3.74804,3.68945 H 276.25 v -7.5 z m 0,2.5 H 273.75 v 2.5 h -19.1543 c -0.69669,-3e-5 -1.23893,-0.53387 -1.25,-1.23047 v -0.0391 c 0.0112,-0.69649 0.55342,-1.23044 1.25,-1.23047 z"
         id="path171" /><path
         style="baseline-shift:baseline;display:inline;overflow:visible;opacity:1;vector-effect:none;fill:#1a9659;stroke-linecap:round;paint-order:markers stroke fill;enable-background:accumulate;stop-color:#000000;stop-opacity:1"
         d="m 273.75,61.25 v 7.5 h 21.61719 0.0801 0.01 c 2.03581,-0.02896 3.69517,-1.713985 3.69531,-3.75 -1.4e-4,-2.036015 -1.6595,-3.721035 -3.69531,-3.75 h -0.01 -0.0801 z m 2.5,2.5 h 19.11719 0.0527 c 0.69748,0.0099 1.23238,0.552447 1.23242,1.25 -4e-5,0.697553 -0.53494,1.240077 -1.23242,1.25 H 295.36719 276.25 Z"
         id="path172" /><path
         style="baseline-shift:baseline;display:inline;overflow:visible;opacity:1;vector-effect:none;fill:#1a9659;stroke-linecap:round;paint-order:markers stroke fill;enable-background:accumulate;stop-color:#000000;stop-opacity:1"
         d="m 273.75,51.25 v 7.5 h 23.75 c 2.05608,-3.5e-4 3.75008,-1.693917 3.75,-3.75 7e-5,-2.056077 -1.69392,-3.74965 -3.75,-3.75 z m 2.5,2.5 h 21.25 c 0.7051,1.2e-4 1.25002,0.544903 1.25,1.25 3e-5,0.7051 -0.5449,1.24988 -1.25,1.25 h -21.25 z"
         id="path173" /><path
         style="baseline-shift:baseline;display:inline;overflow:visible;opacity:1;vector-effect:none;fill:#1a9659;stroke-linecap:round;paint-order:markers stroke fill;enable-background:accumulate;stop-color:#000000;stop-opacity:1"
         d="m 273.75,41.25 v 7.5 h 21.64844 0.004 c 2.05638,7.8e-5 3.75007,-1.693628 3.75,-3.75 8e-5,-2.056378 -1.69362,-3.750078 -3.75,-3.75 z m 2.5,2.5 h 19.15234 c 0.70521,-2.7e-5 1.25003,0.544789 1.25,1.25 3e-5,0.705209 -0.54479,1.250027 -1.25,1.25 h -0.004 H 276.25 Z"
         id="path174" /><path
         style="baseline-shift:baseline;display:inline;overflow:visible;opacity:1;vector-effect:none;fill:#1a9659;stroke-linecap:round;paint-order:markers stroke fill;enable-background:accumulate;stop-color:#000000;stop-opacity:1"
         d="m 257.5,51.25 c -2.05608,-7.7e-5 -3.74964,1.693924 -3.75,3.75 -7e-5,2.055715 1.69257,3.748985 3.74805,3.75 0.004,5e-6 0.008,5e-6 0.0117,0 H 276.25 v -7.5 z m 0,2.5 h 16.25 v 2.5 h -16.24219 -0.002 c -0.002,3e-6 -0.002,3e-6 -0.004,0 H 257.5 c -0.7052,2.7e-5 -1.25003,-0.54479 -1.25,-1.25 1.2e-4,-0.705098 0.5449,-1.250027 1.25,-1.25 z"
         id="path175" /><path
         style="baseline-shift:baseline;display:inline;overflow:visible;opacity:1;vector-effect:none;fill:#1a9659;stroke-linecap:round;paint-order:markers stroke fill;enable-background:accumulate;stop-color:#000000;stop-opacity:1"
         d="m 257.5,41.25 c -2.05608,-7.7e-5 -3.74964,1.693924 -3.75,3.75 -7e-5,2.055715 1.69257,3.748985 3.74805,3.75 0.004,5e-6 0.008,5e-6 0.0117,0 H 276.25 v -7.5 z m 0,2.5 h 16.25 v 2.5 h -16.24219 -0.002 c -0.002,3e-6 -0.002,3e-6 -0.004,0 H 257.5 c -0.7052,2.7e-5 -1.25003,-0.54479 -1.25,-1.25 1.2e-4,-0.705098 0.5449,-1.250027 1.25,-1.25 z"
         id="path176" /><path
         style="baseline-shift:baseline;display:inline;overflow:visible;opacity:1;vector-effect:none;fill:#1a9659;stroke-linecap:round;paint-order:markers stroke fill;enable-background:accumulate;stop-color:#000000;stop-opacity:1"
         d="m 257.5,61.25 c -2.05608,-7.7e-5 -3.74964,1.693924 -3.75,3.75 -7e-5,2.055715 1.69257,3.748985 3.74805,3.75 0.004,5e-6 0.008,5e-6 0.0117,0 H 276.25 v -7.5 z m 0,2.5 h 16.25 v 2.5 h -16.24219 -0.002 c -0.002,3e-6 -0.002,3e-6 -0.004,0 H 257.5 c -0.7052,2.7e-5 -1.25003,-0.54479 -1.25,-1.25 1.2e-4,-0.705098 0.5449,-1.250027 1.25,-1.25 z"
         id="path177" /><path
         style="baseline-shift:baseline;display:inline;overflow:visible;opacity:1;vector-effect:none;fill:#1a9659;stroke-linecap:round;paint-order:markers stroke fill;enable-background:accumulate;stop-color:#000000;stop-opacity:1"
         d="m 273.75,81.25 v 7.5 h 18.74219 c 0.003,2e-6 0.005,2e-6 0.008,0 2.05638,7.7e-5 3.75007,-1.693622 3.75,-3.75 -3.6e-4,-2.056076 -1.69392,-3.748124 -3.75,-3.748047 z m 2.5,2.5 16.25,0.002 c 0.7051,-2.6e-5 1.24988,0.544902 1.25,1.25 -10e-4,0.704243 -0.54546,1.248074 -1.25,1.248047 h -0.002 c -0.002,3e-6 -0.002,3e-6 -0.004,0 H 276.25 Z"
         id="path178" /><path
         style="baseline-shift:baseline;display:inline;overflow:visible;opacity:1;vector-effect:none;fill:#1a9659;stroke-linecap:round;paint-order:markers stroke fill;enable-background:accumulate;stop-color:#000000;stop-opacity:1"
         d="m 273.75,91.25 v 7.5 h 18.74219 c 0.003,2e-6 0.005,2e-6 0.008,0 2.05638,7.7e-5 3.75007,-1.693622 3.75,-3.75 -3.6e-4,-2.056076 -1.69392,-3.750077 -3.75,-3.75 z m 2.5,2.5 h 16.25 c 0.7051,-2.7e-5 1.24988,0.544902 1.25,1.25 3e-5,0.70521 -0.5448,1.250027 -1.25,1.25 h -0.002 c -0.002,3e-6 -0.002,3e-6 -0.004,0 H 276.25 Z"
         id="path179" /><path
         style="baseline-shift:baseline;display:inline;overflow:visible;opacity:1;vector-effect:none;fill:#1a9659;stroke-linecap:round;paint-order:markers stroke fill;enable-background:accumulate;stop-color:#000000;stop-opacity:1"
         d="m 273.75,101.25 v 7.5 h 18.74219 0.008 c 2.05638,7e-5 3.75007,-1.69362 3.75,-3.75 -3.6e-4,-2.05608 -1.69391,-3.75009 -3.75,-3.75 z m 2.5,2.5 h 16.25 c 0.70509,-3e-5 1.24988,0.5449 1.25,1.25 3e-5,0.7052 -0.5448,1.25003 -1.25,1.25 h -0.008 -16.242 z"
         id="path180" /><path
         id="path181"
         style="fill:#1a9659;fill-opacity:1;stroke-width:2;stroke-linecap:round;paint-order:markers stroke fill"
         d="m 274.99952,30 a 25,25 0 0 0 -6.4704,0.85214 25,25 0 0 0 -15.17996,11.64787 25,25 0 0 0 -1.25263,2.47789 25,25 0 0 0 -1.97146,7.52254 25,25 0 0 0 -0.12506,2.47891 v 0.03204 a 25,25 0 0 0 0.12765,2.48874 25,25 0 0 0 1.96887,7.50032 25,25 0 0 0 1.26504,2.5001 25,25 0 0 0 6.66729,7.49929 25,25 0 0 0 14.97066,5.00021 15,15 0 0 1 8.29149,2.50011 15,15 0 0 1 4.69893,4.99969 15,15 0 0 1 1.79989,5.00021 15,15 0 0 1 0.20981,2.50011 15,15 0 0 1 -0.20929,2.5001 15,15 0 0 1 -1.79989,4.9997 15,15 0 0 1 -4.69842,5.00021 15,15 0 0 1 -8.29252,2.50011 5,5 0 0 0 -4.99969,5.00021 5,5 0 0 0 4.99969,4.99968 5,5 0 0 0 0.65268,-0.0429 25,25 0 0 0 20.9982,-12.45711 25,25 0 0 0 1.25263,-2.47789 25,25 0 0 0 1.97094,-7.52253 25,25 0 0 0 0.12609,-2.49959 v -0.0021 a 25,25 0 0 0 -0.12815,-2.49804 25,25 0 0 0 -1.96888,-7.4998 25,25 0 0 0 -1.26555,-2.5001 25,25 0 0 0 -6.66729,-7.50032 25,25 0 0 0 -14.97067,-4.99918 15,15 0 0 1 -8.292,-2.50011 15,15 0 0 1 -4.69842,-5.00021 15,15 0 0 1 -1.79989,-5.00021 15,15 0 0 1 -0.20981,-2.50011 15,15 0 0 1 0.20981,-2.5001 15,15 0 0 1 1.80041,-4.9997 15,15 0 0 1 4.69842,-5.00021 h 5.2e-4 a 15,15 0 0 1 8.29096,-2.49907 v -5.2e-4 a 5,5 0 0 0 5.00021,-5.00021 5,5 0 0 0 -5.00021,-4.99969 z" /><rect
         style="fill:#1a9659;fill-opacity:1;stroke:none;stroke-width:2;stroke-linecap:round;stroke-linejoin:round;stroke-opacity:1;paint-order:markers stroke fill"
         id="rect181"
         width="10"
         height="10"
         x="295.00006"
         y="90" /><rect
         style="fill:#1a9659;fill-opacity:1;stroke:none;stroke-width:2;stroke-linecap:round;stroke-linejoin:round;stroke-opacity:1;paint-order:markers stroke fill"
         id="rect182"
         width="10"
         height="10"
         x="281.62952"
         y="-132.27965"
         transform="rotate(45)" /><rect
         style="fill:#1a9659;fill-opacity:1;stroke:none;stroke-width:2;stroke-linecap:round;stroke-linejoin:round;stroke-opacity:1;paint-order:markers stroke fill"
         id="rect183"
         width="10"
         height="10"
         x="114.99967"
         y="-280.0007"
         transform="rotate(90)" /><rect
         style="fill:#1a9659;fill-opacity:1;stroke:none;stroke-width:2;stroke-linecap:round;stroke-linejoin:round;stroke-opacity:1;paint-order:markers stroke fill"
         id="rect184"
         width="10"
         height="10"
         x="147.27901"
         y="256.62985"
         transform="rotate(-45)" /></g></g></svg>
