<?xml version="1.0" encoding="UTF-8" standalone="no"?>
<!-- Created with Inkscape (http://www.inkscape.org/) -->

<svg
   width="59.945404mm"
   height="93.908592mm"
   viewBox="0 0 59.945404 93.908592"
   version="1.1"
   id="svg1"
   xml:space="preserve"
   xmlns="http://www.w3.org/2000/svg"
   xmlns:svg="http://www.w3.org/2000/svg"><defs
     id="defs1" /><g
     id="layer1"
     transform="translate(-245.75903,-172.12011)"><g
       id="g169"
       transform="rotate(15,-261.79972,148.5)"><path
         d="m 275.00004,82.49964 -20.40392,5.2e-4 a 2.5000155,2.5000155 0 0 0 -2.50011,2.49958 2.5000155,2.5000155 0 0 0 2.50011,2.50011 2.5000155,2.5000155 0 0 0 0.008,0 h 20.39617 z"
         style="fill:#4ade80;fill-opacity:1;stroke-width:2;stroke-linecap:round;paint-order:markers stroke fill"
         id="path154" /><path
         d="m 252.49185,92.50006 a 2.5000155,2.5000155 0 0 0 -2.49184,2.50011 2.5000155,2.5000155 0 0 0 2.50011,2.5001 h 22.4994 v -5.00021 h -22.49113 a 2.5000155,2.5000155 0 0 1 0.16381,0.0114 2.5000155,2.5000155 0 0 0 -0.17208,-0.0114 2.5000155,2.5000155 0 0 0 -0.008,0 z"
         style="fill:#9f7aea;fill-opacity:1;stroke-width:2;stroke-linecap:round;paint-order:markers stroke fill"
         id="path155" /><path
         d="m 254.59612,102.49997 a 2.5000155,2.5000155 0 0 0 -2.49959,2.4598 v 0.0801 a 2.5000155,2.5000155 0 0 0 2.49959,2.46032 h 20.40392 v -5.00021 z"
         style="fill:#3b82f6;fill-opacity:1;stroke-width:2;stroke-linecap:round;paint-order:markers stroke fill"
         id="path156" /><path
         d="m 275.00004,62.50034 -5.2e-4,5.00021 20.36775,-0.001 h 0.0713 a 2.5000155,2.5000155 0 0 0 2.46445,-2.49959 2.5000155,2.5000155 0 0 0 -2.46445,-2.49959 h -0.0713 z"
         style="fill:#f59e0b;fill-opacity:1;stroke-width:2;stroke-linecap:round;paint-order:markers stroke fill"
         id="path157" /><path
         d="m 274.99952,52.49992 5.2e-4,5.00021 h 22.49992 a 2.5000155,2.5000155 0 0 0 2.49959,-2.50011 2.5000155,2.5000155 0 0 0 -2.49959,-2.5001 z"
         style="fill:#3b82f6;fill-opacity:1;stroke-width:2;stroke-linecap:round;paint-order:markers stroke fill"
         id="path158" /><path
         d="m 275.00004,42.50001 -5.2e-4,5.00021 h 20.39927 a 2.5000155,2.5000155 0 0 0 0.004,0 2.5000155,2.5000155 0 0 0 2.50011,-2.5001 2.5000155,2.5000155 0 0 0 -2.50011,-2.50011 z"
         style="fill:#9f7aea;fill-opacity:1;stroke-width:2;stroke-linecap:round;paint-order:markers stroke fill"
         id="path159" /><path
         d="m 274.99952,52.49992 -17.4996,5.2e-4 c -1.38059,-5.2e-5 -2.49987,1.118993 -2.50011,2.49958 -5e-5,1.380794 1.11932,2.500162 2.50011,2.50011 0.003,4e-6 0.005,4e-6 0.008,0 h 17.49212 z"
         style="fill:#4ade80;fill-opacity:1;stroke-width:2;stroke-linecap:round;paint-order:markers stroke fill"
         id="path160" /><path
         d="m 274.99952,42.50001 -17.4996,5.2e-4 c -1.38059,-5.2e-5 -2.49987,1.118993 -2.50011,2.49958 -5e-5,1.380794 1.11932,2.500162 2.50011,2.50011 0.003,4e-6 0.005,4e-6 0.008,0 h 17.49212 z"
         style="fill:#f59e0b;fill-opacity:1;stroke-width:2;stroke-linecap:round;paint-order:markers stroke fill"
         id="path161" /><path
         d="m 274.99952,62.50034 -17.4996,5.2e-4 c -1.38059,-5.2e-5 -2.49987,1.118993 -2.50011,2.49958 -5e-5,1.380794 1.11932,2.500162 2.50011,2.50011 0.003,4e-6 0.005,4e-6 0.008,0 h 17.49212 z"
         style="fill:#9f7aea;fill-opacity:1;stroke-width:2;stroke-linecap:round;paint-order:markers stroke fill"
         id="path162" /><path
         d="m 275.00081,82.500669 17.4996,5.2e-4 c 1.38059,-5.2e-5 2.49987,1.118993 2.50011,2.49958 5e-5,1.380794 -1.11932,2.500162 -2.50011,2.50011 -0.003,4e-6 -0.005,4e-6 -0.008,0 h -17.49212 z"
         style="fill:#3b82f6;fill-opacity:1;stroke-width:2;stroke-linecap:round;paint-order:markers stroke fill"
         id="path163" /><path
         d="m 275.00081,92.500057 17.4996,5.2e-4 c 1.38059,-5.2e-5 2.49987,1.118993 2.50011,2.49958 5e-5,1.380794 -1.11932,2.500162 -2.50011,2.50011 -0.003,4e-6 -0.005,4e-6 -0.008,0 h -17.49212 z"
         style="fill:#f59e0b;fill-opacity:1;stroke-width:2;stroke-linecap:round;paint-order:markers stroke fill"
         id="path164" /><path
         d="m 275.00081,102.49998 17.4996,5.2e-4 c 1.38059,-6e-5 2.49987,1.11899 2.50011,2.49958 5e-5,1.38079 -1.11932,2.50016 -2.50011,2.50011 -0.003,0 -0.005,0 -0.008,0 h -17.49212 z"
         style="fill:#4ade80;fill-opacity:1;stroke-width:2;stroke-linecap:round;paint-order:markers stroke fill"
         id="path165" /><path
         id="path166"
         style="fill:#1a9659;fill-opacity:1;stroke-width:2;stroke-linecap:round;paint-order:markers stroke fill"
         d="m 274.99952,30 a 25,25 0 0 0 -6.4704,0.85214 25,25 0 0 0 -15.17996,11.64787 25,25 0 0 0 -1.25263,2.47789 25,25 0 0 0 -1.97146,7.52254 25,25 0 0 0 -0.12506,2.47891 v 0.03204 a 25,25 0 0 0 0.12765,2.48874 25,25 0 0 0 1.96887,7.50032 25,25 0 0 0 1.26504,2.5001 25,25 0 0 0 6.66729,7.49929 25,25 0 0 0 14.97066,5.00021 15,15 0 0 1 8.29149,2.50011 15,15 0 0 1 4.69893,4.99969 15,15 0 0 1 1.79989,5.00021 15,15 0 0 1 0.20981,2.50011 15,15 0 0 1 -0.20929,2.5001 15,15 0 0 1 -1.79989,4.9997 15,15 0 0 1 -4.69842,5.00021 15,15 0 0 1 -8.29252,2.50011 5,5 0 0 0 -4.99969,5.00021 5,5 0 0 0 4.99969,4.99968 5,5 0 0 0 0.65268,-0.0429 25,25 0 0 0 20.9982,-12.45711 25,25 0 0 0 1.25263,-2.47789 25,25 0 0 0 1.97094,-7.52253 25,25 0 0 0 0.12609,-2.49959 v -0.0021 a 25,25 0 0 0 -0.12815,-2.49804 25,25 0 0 0 -1.96888,-7.4998 25,25 0 0 0 -1.26555,-2.5001 25,25 0 0 0 -6.66729,-7.50032 25,25 0 0 0 -14.97067,-4.99918 15,15 0 0 1 -8.292,-2.50011 15,15 0 0 1 -4.69842,-5.00021 15,15 0 0 1 -1.79989,-5.00021 15,15 0 0 1 -0.20981,-2.50011 15,15 0 0 1 0.20981,-2.5001 15,15 0 0 1 1.80041,-4.9997 15,15 0 0 1 4.69842,-5.00021 h 5.2e-4 a 15,15 0 0 1 8.29096,-2.49907 v -5.2e-4 a 5,5 0 0 0 5.00021,-5.00021 5,5 0 0 0 -5.00021,-4.99969 z" /><rect
         style="fill:#1a9659;fill-opacity:1;stroke:none;stroke-width:2;stroke-linecap:round;stroke-linejoin:round;stroke-opacity:1;paint-order:markers stroke fill"
         id="rect166"
         width="10"
         height="10"
         x="295.00006"
         y="90" /><rect
         style="fill:#1a9659;fill-opacity:1;stroke:none;stroke-width:2;stroke-linecap:round;stroke-linejoin:round;stroke-opacity:1;paint-order:markers stroke fill"
         id="rect167"
         width="10"
         height="10"
         x="281.62952"
         y="-132.27965"
         transform="rotate(45)" /><rect
         style="fill:#1a9659;fill-opacity:1;stroke:none;stroke-width:2;stroke-linecap:round;stroke-linejoin:round;stroke-opacity:1;paint-order:markers stroke fill"
         id="rect168"
         width="10"
         height="10"
         x="114.99967"
         y="-280.0007"
         transform="rotate(90)" /><rect
         style="fill:#1a9659;fill-opacity:1;stroke:none;stroke-width:2;stroke-linecap:round;stroke-linejoin:round;stroke-opacity:1;paint-order:markers stroke fill"
         id="rect169"
         width="10"
         height="10"
         x="147.27901"
         y="256.62985"
         transform="rotate(-45)" /></g></g></svg>
