<?xml version="1.0" encoding="UTF-8" standalone="no"?>
<!-- Created with Inkscape (http://www.inkscape.org/) -->

<svg
   width="123.66422mm"
   height="93.909096mm"
   viewBox="0 0 123.66422 93.909096"
   version="1.1"
   id="svg1"
   xml:space="preserve"
   xmlns="http://www.w3.org/2000/svg"
   xmlns:svg="http://www.w3.org/2000/svg"><defs
     id="defs1" /><g
     id="layer1"
     transform="translate(-261.47132,-313.73485)"><g
       id="g448"><path
         id="path325"
         style="baseline-shift:baseline;display:inline;overflow:visible;vector-effect:none;fill:#000000;stroke:none;stroke-linecap:round;stroke-opacity:1;paint-order:markers stroke fill;enable-background:accumulate;stop-color:#000000"
         d="m 330.2522,313.73484 a 25,25 0 0 0 -17.67747,7.32203 25,25 0 0 0 -1.85105,2.06913 25,25 0 0 0 -3.85144,6.75617 25,25 0 0 0 -0.76223,2.36213 l -0.008,0.031 a 25,25 0 0 0 -0.5209,2.43706 25,25 0 0 0 -0.0398,7.75404 25,25 0 0 0 0.57516,2.74247 25,25 0 0 0 4.49895,8.96948 25,25 0 0 0 13.16663,8.70438 15,15 0 0 1 5.46789,2.76004 l -4.58422,-1.22887 -2.41432,-0.64699 -18.50171,-4.95783 c -1.986,-0.53222 -4.06051,0.66559 -4.59301,2.65151 -0.53212,1.98565 0.66479,4.05951 2.64997,4.59249 0.004,10e-4 0.008,0.002 0.0114,0.003 l 18.49189,4.95474 2.41484,0.64698 11.96413,3.20601 a 15,15 0 0 1 0.21033,2.64428 l -12.82144,-3.43545 -22.88801,-6.13244 -0.015,-0.004 -0.017,-0.005 -0.0129,-0.004 -0.006,-0.002 c -0.003,-7.8e-4 -0.006,-0.002 -0.01,-0.003 l -0.002,-5.2e-4 -10e-4,0.002 c -1.9835,-0.52454 -4.0507,0.67282 -4.58163,2.65462 -0.53229,1.98629 0.66571,4.06033 2.65203,4.59248 l 22.94072,6.14691 12.82144,3.43545 a 15,15 0 0 1 -1.5043,2.1854 l -11.96465,-3.20601 -20.91603,-5.60431 c -1.96415,-0.52621 -4.01762,0.63822 -4.57543,2.59364 l -0.005,0.009 -0.0253,0.0961 -10e-4,0.0119 c -0.49509,1.97252 0.70108,4.00764 2.66547,4.53409 l 18.50172,4.95732 6.99905,1.87534 a 15,15 0 0 1 -6.11539,-0.34416 5,5 0 0 0 -6.12314,3.5357 5,5 0 0 0 -0.0186,0.0708 l -2.56884,9.58805 9.65885,2.58796 1.43298,-5.34697 a 25,25 0 0 0 9.41028,-1.22731 l 2.76159,4.78317 8.65994,-5.00021 -2.75384,-4.76922 a 25,25 0 0 0 1.10122,-1.03353 25,25 0 0 0 1.85105,-2.06912 25,25 0 0 0 2.83704,-4.43901 l 5.31802,1.42472 2.58796,-9.65936 -5.32216,-1.42575 a 25,25 0 0 0 -0.23874,-5.24051 25,25 0 0 0 -0.57516,-2.74247 25,25 0 0 0 -0.43305,-1.43712 l 4.778,-2.75849 -5.00021,-8.65993 -4.78162,2.76055 a 25,25 0 0 0 -12.22871,-7.57886 15,15 0 0 1 -5.46788,-2.75952 l 6.99905,1.87533 18.46606,4.94802 0.077,0.0207 0.0103,0.003 c 1.97394,0.49893 4.01268,-0.69937 4.53978,-2.66598 0.52682,-1.96667 -0.63986,-4.02365 -2.59881,-4.57854 l -0.01,-0.003 -0.0775,-0.0207 -18.46606,-4.94801 -14.37897,-3.853 a 15,15 0 0 1 -0.21032,-2.64428 l 12.82196,3.43545 22.94071,6.14691 c 1.98611,0.53182 4.06041,-0.66547 4.59249,-2.65152 0.53222,-1.986 -0.66559,-4.06051 -2.65152,-4.593 l -20.52588,-5.49992 -15.23628,-4.08244 a 15,15 0 0 1 1.50482,-2.18488 l 14.37845,3.85248 18.49603,4.95628 0.004,0.001 c 1.98629,0.53231 4.06033,-0.66571 4.59249,-2.65203 0.53231,-1.98629 -0.66519,-4.06033 -2.65152,-4.59249 l -18.50016,-4.95732 -6.99699,-1.87482 a 15,15 0 0 1 6.1128,0.34468 v -5.1e-4 a 5,5 0 0 0 6.12418,-3.53571 5,5 0 0 0 -3.5357,-6.12314 l -5.2e-4,-5.1e-4 a 25,25 0 0 0 -6.47041,-0.85163 z m -6.67142,11.56518 8.37623,2.24431 -0.64699,2.41484 -10.5606,-2.8298 a 15,15 0 0 1 2.83136,-1.82935 z m 10.79107,2.8913 18.49964,4.95732 c 0.68118,0.1825 1.06674,0.84948 0.88419,1.53066 -0.18249,0.68118 -0.85,1.06672 -1.53117,0.88418 l -0.004,-0.001 -18.49551,-4.95629 z m -18.23403,5.46685 13.23123,3.54552 -0.64699,2.41484 -13.23175,-3.54552 a 15,15 0 0 1 0.27337,-1.2206 15,15 0 0 1 0.37414,-1.19424 z m 15.64607,4.19251 20.52588,5.49992 c 0.68104,0.18261 1.06619,0.85011 0.88367,1.53117 -0.18246,0.68109 -0.84955,1.06604 -1.53066,0.88367 l -20.52588,-5.49992 z m -15.56442,6.18256 10.56111,2.82981 -0.64699,2.41484 -8.37675,-2.24483 a 15,15 0 0 1 -1.53737,-2.99982 z m 12.97595,3.47679 18.46606,4.94802 0.0506,0.0134 c 0.67115,0.19008 1.04763,0.85273 0.86713,1.52652 -0.18058,0.67377 -0.83784,1.05926 -1.51412,0.88832 l -0.0506,-0.0134 -18.46606,-4.94802 z m -26.47177,13.66945 c 0.12363,-0.004 0.25109,0.0102 0.37879,0.0444 h 5.2e-4 l 18.50119,4.95783 -0.64699,2.41433 -18.49396,-4.95526 -0.002,-5.1e-4 c -9.6e-4,-2.6e-4 -0.003,-8.2e-4 -0.004,-10e-4 l -0.002,-5.1e-4 c -0.68119,-0.1825 -1.06672,-0.84948 -0.88418,-1.53066 0.14838,-0.55334 0.61668,-0.91167 1.15238,-0.92863 z m 21.29534,5.64927 8.37675,2.24534 a 15,15 0 0 1 1.53738,2.9993 l -10.56112,-2.8298 z m -25.91521,3.47007 c 0.12289,-0.005 0.24964,0.008 0.37672,0.0414 0.0174,0.006 0.0346,0.0117 0.0517,0.0181 h 5.1e-4 c 3e-4,6e-5 10e-4,3.6e-4 0.002,5.2e-4 l 10e-4,-0.006 20.48092,5.48753 -0.64699,2.41483 -20.52588,-5.49992 c -0.68119,-0.18249 -1.06673,-0.84947 -0.88418,-1.53065 0.14742,-0.55031 0.61208,-0.90613 1.14463,-0.92605 z m 23.32726,6.18877 13.23123,3.54552 a 15,15 0 0 1 -0.27337,1.22112 15,15 0 0 1 -0.37362,1.19372 l -13.23123,-3.54552 z m -23.87917,4.01061 c 0.12237,-0.004 0.2485,0.0106 0.37466,0.0444 l 18.50119,4.95732 -0.64698,2.41484 -18.5012,-4.95732 c -0.67294,-0.18035 -1.05895,-0.83632 -0.88935,-1.51205 l 0.0103,-0.0377 c 0.15526,-0.54426 0.62112,-0.89412 1.15135,-0.90951 z m 21.29069,5.64875 10.56163,2.8298 a 15,15 0 0 1 -2.83186,1.82987 l -8.37675,-2.24483 z" /><path
         style="font-weight:bold;font-size:67.3478px;line-height:1;font-family:Rubik;-inkscape-font-specification:'Rubik Bold';fill:#000000;stroke:none;stroke-width:1;stroke-linecap:round;stroke-linejoin:round;paint-order:markers stroke fill"
         d="m 271.26091,372.61276 v 18.91429 q 0,0.62858 -0.42333,1.08571 -0.42334,0.45714 -1.00542,0.45714 h -6.93209 q -0.58208,0 -1.00542,-0.45714 -0.42333,-0.45713 -0.42333,-1.08571 v -36.91429 q 0,-0.62857 0.42333,-1.08571 0.42334,-0.45715 1.00542,-0.45715 h 6.13833 q 1.48167,0 2.27543,1.54286 l 8.5725,15.82857 8.57251,-15.82857 q 0.79374,-1.54286 2.27541,-1.54286 h 6.13834 q 0.58208,0 1.00542,0.45715 0.42333,0.45714 0.42333,1.08571 v 36.91429 q 0,0.62858 -0.42333,1.08571 -0.42334,0.45714 -1.00542,0.45714 h -6.93208 q -0.58209,0 -1.00542,-0.45714 -0.42333,-0.45713 -0.42333,-1.08571 v -18.91429 l -4.97418,9.42857 q -0.37041,0.62858 -0.84666,1.02858 -0.42334,0.39999 -1.11126,0.39999 h -3.38667 q -0.68791,0 -1.16416,-0.39999 -0.42333,-0.4 -0.79375,-1.02858 z"
         id="text340"
         aria-label="M" /><path
         d="m 369.04867,330.68884 c -2.30336,0 -4.40208,0.31211 -6.29677,0.93638 -0.77502,0.25536 -1.51596,0.56313 -2.2226,0.92294 -2.3989,1.23944 -4.26893,3.06103 -5.60948,5.46478 -1.30529,2.40375 -1.9575,5.29568 -1.9575,8.67596 v 0.22531 c 0,0.41314 0.141,0.77026 0.42323,1.07073 0.28222,0.30047 0.61705,0.45062 1.0051,0.45062 h 6.9324 c 0.38805,0 0.72288,-0.15015 1.0051,-0.45062 0.28223,-0.30047 0.42375,-0.65759 0.42375,-1.07073 0,-2.29108 0.52917,-4.07513 1.5875,-5.35213 1.09361,-1.23944 2.66316,-1.8588 4.70927,-1.8588 2.04612,0 3.59823,0.61936 4.65657,1.8588 1.09361,1.277 1.64072,3.06105 1.64072,5.35213 0,0.41314 0.14101,0.77026 0.42323,1.07073 0.28223,0.30047 0.61757,0.45062 1.00563,0.45062 h 6.93187 c 0.38806,0 0.7234,-0.15015 1.00563,-0.45062 0.28222,-0.30047 0.42323,-0.65759 0.42323,-1.07073 v -0.22531 c 0,-3.38028 -0.67018,-6.27221 -2.01073,-8.67596 -1.34056,-2.40375 -3.22802,-4.22534 -5.66219,-5.46478 -0.67357,-0.34801 -1.37913,-0.64732 -2.11667,-0.89762 -1.88917,-0.64112 -3.9884,-0.9617 -6.29729,-0.9617 z"
         style="font-weight:bold;font-size:66.8719px;line-height:1;font-family:Rubik;-inkscape-font-specification:'Rubik Bold';fill:#000000;stroke:none;stroke-linecap:round;stroke-linejoin:round;paint-order:markers stroke fill"
         id="path343" /><path
         d="m 354.39065,353.0699 c -0.38805,0 -0.72288,0.15015 -1.0051,0.45062 -0.28223,0.30047 -0.42323,0.65708 -0.42323,1.07022 v 20.09851 2.38074 c 0,3.38028 0.65221,6.2722 1.9575,8.67595 1.34055,2.40376 3.21058,4.22535 5.60948,5.46479 2.43416,1.23943 5.27382,1.85931 8.51937,1.85931 3.21029,0 6.01507,-0.61988 8.41396,-1.85931 2.43417,-1.23944 4.32163,-3.06103 5.66219,-5.46479 1.34055,-2.40375 2.01073,-5.29567 2.01073,-8.67595 v -2.38074 -20.09851 c 0,-0.41314 -0.14101,-0.76975 -0.42323,-1.07022 -0.28223,-0.30047 -0.61757,-0.45062 -1.00563,-0.45062 h -6.93187 c -0.38806,0 -0.7234,0.15015 -1.00563,0.45062 -0.28222,0.30047 -0.42323,0.65708 -0.42323,1.07022 v 22.25394 c 0,2.29108 -0.54711,4.07513 -1.64072,5.35213 -1.05834,1.23943 -2.61045,1.8588 -4.65657,1.8588 -2.04611,0 -3.61566,-0.61937 -4.70927,-1.8588 -1.05833,-1.277 -1.5875,-3.06105 -1.5875,-5.35213 v -22.25394 c 0,-0.41314 -0.14152,-0.76975 -0.42375,-1.07022 -0.28222,-0.30047 -0.61705,-0.45062 -1.0051,-0.45062 z"
         style="font-weight:bold;font-size:66.8719px;line-height:1;font-family:Rubik;-inkscape-font-specification:'Rubik Bold';fill:#000000;stroke:none;stroke-linecap:round;stroke-linejoin:round;paint-order:markers stroke fill"
         id="path345" /></g></g></svg>
