<?xml version="1.0" encoding="UTF-8" standalone="no"?>
<!-- Created with Inkscape (http://www.inkscape.org/) -->

<svg
   width="61.944229mm"
   height="88.608932mm"
   viewBox="0 0 61.944229 88.608932"
   version="1.1"
   id="svg1"
   xmlns="http://www.w3.org/2000/svg"
   xmlns:svg="http://www.w3.org/2000/svg">
  <defs
     id="defs1" />
  <g
     id="layer1"
     transform="translate(-119.76047,-160.58918)">
    <path
       id="path93"
       style="fill:#1a9659;fill-opacity:1;stroke-width:2;stroke-linecap:round;paint-order:markers stroke fill"
       d="m 155.90883,160.58916 a 25,25 0 0 0 -17.67747,7.32255 25,25 0 0 0 -1.85105,2.06913 25,25 0 0 0 -3.85145,6.75566 25,25 0 0 0 -0.76223,2.36213 l -0.008,0.031 a 25,25 0 0 0 -0.52039,2.43707 25,25 0 0 0 -0.0398,7.75456 25,25 0 0 0 0.57516,2.74195 25,25 0 0 0 4.49895,8.96948 25,25 0 0 0 13.16664,8.70438 15,15 0 0 1 5.92625,3.14089 l -5.34747,-1.43247 -20.67574,-5.5392 c -0.46388,-0.12431 -0.93289,-0.14739 -1.38287,-0.0837 v -5.2e-4 c -1.34992,0.19109 -2.53108,1.16537 -2.90421,2.55695 v 0.002 c -0.49733,1.85578 0.62052,3.78781 2.47633,4.28501 l 0.006,0.002 0.008,0.002 c 0.004,9.4e-4 0.008,0.003 0.0119,0.004 l 18.71617,5.01571 14.02344,3.75688 a 15,15 0 0 1 0.25476,3.175 L 147.428,221.10401 v -5.2e-4 l -21.92166,-5.87303 v -0.002 l -0.45733,-0.12144 -0.30076,-0.0801 -0.0114,-0.004 -0.0176,-0.004 -0.004,-0.002 c -0.004,-9.4e-4 -0.008,-0.001 -0.0119,-0.002 l 0.002,0.004 c -0.45881,-0.11935 -0.92284,-0.14411 -1.36736,-0.0801 -1.34685,0.19405 -2.52237,1.16982 -2.8944,2.5585 -0.49732,1.85577 0.61898,3.78834 2.47479,4.28552 l 20.76772,5.56452 15.05438,4.03438 a 15,15 0 0 1 -1.80712,2.62051 l -14.02499,-3.75688 -18.74201,-5.02088 c -0.45876,-0.1229 -0.92367,-0.14699 -1.36942,-0.0858 v -5.2e-4 c -1.33726,0.18351 -2.51129,1.13565 -2.90215,2.50579 l -0.002,0.008 -0.0253,0.0935 -0.002,0.006 c -0.46255,1.84284 0.65299,3.74252 2.48823,4.23437 l 20.67574,5.53919 5.34954,1.43299 a 15,15 0 0 1 -6.7045,-0.2434 5,5 0 0 0 -6.12314,3.53571 5,5 0 0 0 3.53518,6.12365 5,5 0 0 0 0.64131,0.12764 25,25 0 0 0 23.50709,-6.59804 25,25 0 0 0 1.85105,-2.06913 25,25 0 0 0 3.85093,-6.75617 25,25 0 0 0 0.76843,-2.38177 l 5.1e-4,-0.002 a 25,25 0 0 0 0.52297,-2.44636 25,25 0 0 0 0.0393,-7.75353 25,25 0 0 0 -0.57516,-2.74247 25,25 0 0 0 -4.49895,-8.97051 25,25 0 0 0 -13.16663,-8.70335 15,15 0 0 1 -5.92884,-3.14244 l 5.35109,1.43454 20.63854,5.52938 0.0765,0.0196 0.008,0.002 c 1.84418,0.46614 3.74606,-0.64883 4.2385,-2.48615 0.49218,-1.83739 -0.5976,-3.75523 -2.42776,-4.27364 l -0.006,-0.002 -0.076,-0.0212 -18.70739,-5.0121 -14.02447,-3.75842 a 15,15 0 0 1 -0.25424,-3.17294 l 13.12271,3.51555 22.69939,6.0818 c 1.85561,0.49687 3.78997,-0.61872 4.28708,-2.47427 0.49724,-1.8555 -0.61936,-3.78957 -2.47479,-4.28707 l -22.69939,-6.08232 -13.12323,-3.51555 a 15,15 0 0 1 1.80816,-2.62206 l 12.09074,3.24115 20.67367,5.53919 h 5.2e-4 5.1e-4 c 6.9e-4,-2e-5 0.002,3e-5 0.003,0 h 5.1e-4 5.2e-4 5.2e-4 5.1e-4 5.2e-4 c 1.85397,0.49339 3.78472,-0.62093 4.28139,-2.47478 0.49733,-1.85578 -0.61897,-3.78989 -2.47478,-4.28708 l -18.74253,-5.0214 -7.27966,-1.9513 a 15,15 0 0 1 6.70192,0.24391 v -5.1e-4 a 5,5 0 0 0 6.12417,-3.5357 5,5 0 0 0 -3.5357,-6.12366 l -5.1e-4,-5.2e-4 a 25,25 0 0 0 -6.47041,-0.85163 z m -4.68809,11.83649 6.69934,1.79524 -0.0171,0.0631 -0.76067,2.83496 -9.66763,-2.5895 c 1.14684,-0.87459 2.38138,-1.61736 3.74602,-2.10375 z m 8.631,2.31459 18.74201,5.0214 c 0.8117,0.21746 1.27792,1.02644 1.0604,1.83813 -0.21747,0.8117 -1.02593,1.27792 -1.83761,1.0604 l -0.008,-0.002 -0.004,-0.002 -18.72857,-5.01726 z m -16.95504,5.80843 12.4349,3.3321 -0.77669,2.89853 -12.43594,-3.3321 c 0.0771,-0.49656 0.13752,-0.99681 0.26769,-1.4826 0.13004,-0.48543 0.32876,-0.94765 0.51004,-1.41593 z m 14.36709,3.84989 20.7672,5.56452 c 0.81153,0.2176 1.2784,1.02606 1.06092,1.83762 -0.21743,0.81158 -1.02653,1.27772 -1.83813,1.0604 l -20.76721,-5.56401 z m -14.18932,6.55051 9.6697,2.59209 -0.77722,2.89853 -6.7014,-1.79731 c -0.93779,-1.10301 -1.63553,-2.36334 -2.19108,-3.69331 z m 11.60084,3.10989 18.70739,5.01313 0.0548,0.0139 c 0.79992,0.22658 1.2564,1.02885 1.04128,1.83193 -0.21524,0.80306 -1.01038,1.26827 -1.81643,1.06453 l -0.0548,-0.0139 -18.70893,-5.01158 0.0357,-0.13436 z m -26.3033,13.72629 c 0.14809,-0.005 0.3,0.0119 0.45217,0.0527 l 18.74252,5.02088 -0.76016,2.83911 -0.0155,0.0579 -18.74201,-5.0214 h -0.002 c -0.81068,-0.21811 -1.27829,-1.02493 -1.06091,-1.83606 0.1768,-0.65937 0.74423,-1.09109 1.38596,-1.11311 z m 21.12791,5.59191 6.69726,1.79472 c 0.93845,1.10321 1.63773,2.36291 2.19367,3.69331 l -9.66763,-2.59002 z m -25.74727,3.5264 c 0.14742,-0.006 0.29893,0.01 0.45062,0.0496 h 0.002 0.002 l 0.0119,0.004 c 0.004,0.001 0.008,0.003 0.0119,0.004 0.0158,0.005 0.0313,0.0117 0.047,0.0176 v 5.1e-4 h 5.1e-4 v -5.1e-4 h 5.2e-4 5.2e-4 l 0.002,-0.004 20.69745,5.54281 -0.77722,2.89854 -20.76565,-5.56452 c -0.8117,-0.21746 -1.27844,-1.02438 -1.06092,-1.83607 0.17595,-0.65678 0.73889,-1.08719 1.37769,-1.11207 z m 23.15776,6.13347 12.43542,3.3321 c -0.0771,0.49587 -0.13563,0.99541 -0.26562,1.48053 -0.1302,0.48603 -0.32847,0.94916 -0.51004,1.418 l -12.43542,-3.33416 z m -23.70914,4.06694 c 0.14649,-0.005 0.29663,0.0119 0.447,0.0522 l 18.74201,5.0214 -0.77618,2.89595 -18.74305,-5.02089 v 0.002 c -0.80208,-0.21496 -1.26876,-1.00895 -1.0666,-1.81436 l 0.0139,-0.047 c 0.18506,-0.64871 0.74806,-1.0695 1.38287,-1.08934 z m 21.12274,5.59139 9.66607,2.59157 c -1.14584,0.87347 -2.38075,1.61563 -3.74395,2.10168 l -6.69934,-1.79472 z" />
  </g>
</svg>
